<svg width="30" height="31" viewBox="0 0 30 31" fill="none" xmlns="http://www.w3.org/2000/svg">
<path d="M8.75 16.125C9.49168 16.125 10.2167 15.9051 10.8334 15.493C11.4501 15.081 11.9307 14.4953 12.2145 13.8101C12.4984 13.1248 12.5726 12.3708 12.4279 11.6434C12.2833 10.916 11.9261 10.2478 11.4017 9.72335C10.8772 9.1989 10.209 8.84175 9.48159 8.69706C8.75416 8.55236 8.00016 8.62662 7.31494 8.91045C6.62971 9.19428 6.04404 9.67493 5.63199 10.2916C5.21993 10.9083 5 11.6333 5 12.375C5 13.3696 5.39509 14.3234 6.09835 15.0267C6.80161 15.7299 7.75544 16.125 8.75 16.125ZM8.75 11.125C8.99723 11.125 9.2389 11.1983 9.44446 11.3357C9.65002 11.473 9.81024 11.6682 9.90485 11.8966C9.99946 12.1251 10.0242 12.3764 9.97598 12.6189C9.92775 12.8613 9.8087 13.0841 9.63388 13.2589C9.45907 13.4337 9.23634 13.5528 8.99386 13.601C8.75139 13.6492 8.50005 13.6245 8.27165 13.5298C8.04324 13.4352 7.84801 13.275 7.71066 13.0695C7.57331 12.8639 7.5 12.6222 7.5 12.375C7.5 12.0435 7.6317 11.7255 7.86612 11.4911C8.10054 11.2567 8.41848 11.125 8.75 11.125ZM25 8.625H15C14.6685 8.625 14.3505 8.7567 14.1161 8.99112C13.8817 9.22554 13.75 9.54348 13.75 9.875V17.375H3.75V7.375C3.75 7.04348 3.6183 6.72554 3.38388 6.49112C3.14946 6.2567 2.83152 6.125 2.5 6.125C2.16848 6.125 1.85054 6.2567 1.61612 6.49112C1.3817 6.72554 1.25 7.04348 1.25 7.375V23.625C1.25 23.9565 1.3817 24.2745 1.61612 24.5089C1.85054 24.7433 2.16848 24.875 2.5 24.875C2.83152 24.875 3.14946 24.7433 3.38388 24.5089C3.6183 24.2745 3.75 23.9565 3.75 23.625V19.875H26.25V23.625C26.25 23.9565 26.3817 24.2745 26.6161 24.5089C26.8505 24.7433 27.1685 24.875 27.5 24.875C27.8315 24.875 28.1495 24.7433 28.3839 24.5089C28.6183 24.2745 28.75 23.9565 28.75 23.625V12.375C28.75 11.3804 28.3549 10.4266 27.6517 9.72335C26.9484 9.02009 25.9946 8.625 25 8.625ZM26.25 17.375H16.25V11.125H25C25.3315 11.125 25.6495 11.2567 25.8839 11.4911C26.1183 11.7255 26.25 12.0435 26.25 12.375V17.375Z" fill="black"/>
</svg>
