<svg width="473" height="48" viewBox="0 0 473 48" fill="none" xmlns="http://www.w3.org/2000/svg">
<g clip-path="url(#clip0_2227_25456)">
<path d="M20.8756 26.57C20.7073 27.7075 19.3255 28.1813 18.4947 27.3864L13.2036 22.3244C12.9916 22.1215 12.7218 21.9895 12.4315 21.9466L5.18792 20.875C4.05034 20.7067 3.57654 19.325 4.37152 18.4941L9.43341 13.203C9.63636 12.991 9.76837 12.7212 9.81126 12.4309L10.8829 5.18731C11.0511 4.04974 12.4329 3.57594 13.2638 4.37091L18.5548 9.43281C18.7669 9.63574 19.0366 9.76775 19.3269 9.81068L26.5706 10.8822C27.7081 11.0505 28.1819 12.4323 27.387 13.2632L22.325 18.5542C22.1221 18.7663 21.9901 19.036 21.9472 19.3263L20.8756 26.57Z" fill="#FFB49C"/>
</g>
<g clip-path="url(#clip1_2227_25456)">
<path d="M50.1113 10.0597C49.9377 10.4857 49.3558 10.5384 49.1086 10.1505L47.5342 7.68062C47.4711 7.58164 47.3789 7.5047 47.2701 7.46041L44.5577 6.35523C44.1317 6.18168 44.079 5.59975 44.4669 5.35252L46.9368 3.77816C47.0358 3.71508 47.1127 3.62281 47.157 3.51408L48.2622 0.801629C48.4357 0.375646 49.0176 0.322961 49.2649 0.710849L50.8392 3.18071C50.9023 3.27972 50.9946 3.35666 51.1033 3.40094L53.8158 4.50612C54.2417 4.67967 54.2944 5.26159 53.9066 5.50883L51.4367 7.08319C51.3377 7.14628 51.2608 7.23855 51.2165 7.34724L50.1113 10.0597Z" fill="#FFB49C"/>
</g>
<path d="M80.5692 35L75.4492 26.104H72.6652V35H69.0172V12.76H76.6972C78.4039 12.76 79.8439 13.0587 81.0172 13.656C82.2119 14.2533 83.0972 15.0533 83.6732 16.056C84.2705 17.0587 84.5692 18.1787 84.5692 19.416C84.5692 20.8667 84.1425 22.1893 83.2892 23.384C82.4572 24.5573 81.1665 25.3573 79.4172 25.784L84.9212 35H80.5692ZM72.6652 23.192H76.6972C78.0625 23.192 79.0865 22.8507 79.7692 22.168C80.4732 21.4853 80.8252 20.568 80.8252 19.416C80.8252 18.264 80.4839 17.368 79.8012 16.728C79.1185 16.0667 78.0839 15.736 76.6972 15.736H72.6652V23.192ZM105.396 25.752C105.396 26.4133 105.353 27.0107 105.268 27.544H91.7959C91.9026 28.952 92.4253 30.0827 93.3639 30.936C94.3026 31.7893 95.4546 32.216 96.8199 32.216C98.7826 32.216 100.169 31.3947 100.98 29.752H104.916C104.383 31.3733 103.412 32.7067 102.004 33.752C100.617 34.776 98.8893 35.288 96.8199 35.288C95.1346 35.288 93.6199 34.9147 92.2759 34.168C90.9533 33.4 89.9079 32.3333 89.1399 30.968C88.3933 29.5813 88.0199 27.9813 88.0199 26.168C88.0199 24.3547 88.3826 22.7653 89.1079 21.4C89.8546 20.0133 90.8893 18.9467 92.2119 18.2C93.5559 17.4533 95.0919 17.08 96.8199 17.08C98.4839 17.08 99.9666 17.4427 101.268 18.168C102.569 18.8933 103.583 19.9173 104.308 21.24C105.033 22.5413 105.396 24.0453 105.396 25.752ZM101.588 24.6C101.567 23.256 101.087 22.1787 100.148 21.368C99.2093 20.5573 98.0466 20.152 96.6599 20.152C95.4013 20.152 94.3239 20.5573 93.4279 21.368C92.5319 22.1573 91.9986 23.2347 91.8279 24.6H101.588ZM115.802 31.736L120.794 17.368H124.666L117.946 35H113.594L106.906 17.368H110.81L115.802 31.736ZM129.279 15.032C128.618 15.032 128.063 14.808 127.615 14.36C127.167 13.912 126.943 13.3573 126.943 12.696C126.943 12.0347 127.167 11.48 127.615 11.032C128.063 10.584 128.618 10.36 129.279 10.36C129.919 10.36 130.463 10.584 130.911 11.032C131.359 11.48 131.583 12.0347 131.583 12.696C131.583 13.3573 131.359 13.912 130.911 14.36C130.463 14.808 129.919 15.032 129.279 15.032ZM131.071 17.368V35H127.423V17.368H131.071ZM152.021 25.752C152.021 26.4133 151.978 27.0107 151.893 27.544H138.421C138.528 28.952 139.05 30.0827 139.989 30.936C140.928 31.7893 142.08 32.216 143.445 32.216C145.408 32.216 146.794 31.3947 147.605 29.752H151.541C151.008 31.3733 150.037 32.7067 148.629 33.752C147.242 34.776 145.514 35.288 143.445 35.288C141.76 35.288 140.245 34.9147 138.901 34.168C137.578 33.4 136.533 32.3333 135.765 30.968C135.018 29.5813 134.645 27.9813 134.645 26.168C134.645 24.3547 135.008 22.7653 135.733 21.4C136.48 20.0133 137.514 18.9467 138.837 18.2C140.181 17.4533 141.717 17.08 143.445 17.08C145.109 17.08 146.592 17.4427 147.893 18.168C149.194 18.8933 150.208 19.9173 150.933 21.24C151.658 22.5413 152.021 24.0453 152.021 25.752ZM148.213 24.6C148.192 23.256 147.712 22.1787 146.773 21.368C145.834 20.5573 144.672 20.152 143.285 20.152C142.026 20.152 140.949 20.5573 140.053 21.368C139.157 22.1573 138.624 23.2347 138.453 24.6H148.213ZM179.291 17.368L173.819 35H169.979L166.427 21.976L162.875 35H159.035L153.531 17.368H157.243L160.923 31.544L164.667 17.368H168.475L172.059 31.48L175.707 17.368H179.291ZM188.417 35.288C187.031 35.288 185.783 35.0427 184.673 34.552C183.585 34.04 182.721 33.3573 182.081 32.504C181.441 31.6293 181.1 30.6587 181.057 29.592H184.833C184.897 30.3387 185.249 30.968 185.889 31.48C186.551 31.9707 187.372 32.216 188.353 32.216C189.377 32.216 190.167 32.024 190.721 31.64C191.297 31.2347 191.585 30.7227 191.585 30.104C191.585 29.4427 191.265 28.952 190.625 28.632C190.007 28.312 189.015 27.96 187.649 27.576C186.327 27.2133 185.249 26.8613 184.417 26.52C183.585 26.1787 182.86 25.656 182.241 24.952C181.644 24.248 181.345 23.32 181.345 22.168C181.345 21.2293 181.623 20.376 182.177 19.608C182.732 18.8187 183.521 18.2 184.545 17.752C185.591 17.304 186.785 17.08 188.129 17.08C190.135 17.08 191.745 17.592 192.961 18.616C194.199 19.6187 194.86 20.9947 194.945 22.744H191.297C191.233 21.9547 190.913 21.3253 190.337 20.856C189.761 20.3867 188.983 20.152 188.001 20.152C187.041 20.152 186.305 20.3333 185.793 20.696C185.281 21.0587 185.025 21.5387 185.025 22.136C185.025 22.6053 185.196 23 185.537 23.32C185.879 23.64 186.295 23.896 186.785 24.088C187.276 24.2587 188.001 24.4827 188.961 24.76C190.241 25.1013 191.287 25.4533 192.097 25.816C192.929 26.1573 193.644 26.6693 194.241 27.352C194.839 28.0347 195.148 28.9413 195.169 30.072C195.169 31.0747 194.892 31.9707 194.337 32.76C193.783 33.5493 192.993 34.168 191.969 34.616C190.967 35.064 189.783 35.288 188.417 35.288ZM214.815 20.344H211.551V35H207.871V20.344H205.791V17.368H207.871V16.12C207.871 14.0933 208.405 12.6213 209.471 11.704C210.559 10.7653 212.255 10.296 214.559 10.296V13.336C213.45 13.336 212.671 13.5493 212.223 13.976C211.775 14.3813 211.551 15.096 211.551 16.12V17.368H214.815V20.344ZM221.696 19.928C222.23 19.032 222.934 18.3387 223.808 17.848C224.704 17.336 225.76 17.08 226.976 17.08V20.856H226.048C224.619 20.856 223.531 21.2187 222.784 21.944C222.059 22.6693 221.696 23.928 221.696 25.72V35H218.048V17.368H221.696V19.928ZM237.978 35.288C236.314 35.288 234.81 34.9147 233.466 34.168C232.122 33.4 231.066 32.3333 230.298 30.968C229.53 29.5813 229.146 27.9813 229.146 26.168C229.146 24.376 229.54 22.7867 230.33 21.4C231.119 20.0133 232.196 18.9467 233.562 18.2C234.927 17.4533 236.452 17.08 238.138 17.08C239.823 17.08 241.348 17.4533 242.714 18.2C244.079 18.9467 245.156 20.0133 245.946 21.4C246.735 22.7867 247.13 24.376 247.13 26.168C247.13 27.96 246.724 29.5493 245.914 30.936C245.103 32.3227 243.994 33.4 242.586 34.168C241.199 34.9147 239.663 35.288 237.978 35.288ZM237.978 32.12C238.916 32.12 239.791 31.896 240.602 31.448C241.434 31 242.106 30.328 242.618 29.432C243.13 28.536 243.386 27.448 243.386 26.168C243.386 24.888 243.14 23.8107 242.65 22.936C242.159 22.04 241.508 21.368 240.698 20.92C239.887 20.472 239.012 20.248 238.074 20.248C237.135 20.248 236.26 20.472 235.45 20.92C234.66 21.368 234.031 22.04 233.562 22.936C233.092 23.8107 232.858 24.888 232.858 26.168C232.858 28.0667 233.338 29.5387 234.298 30.584C235.279 31.608 236.506 32.12 237.978 32.12ZM272.08 17.08C273.467 17.08 274.704 17.368 275.792 17.944C276.901 18.52 277.765 19.3733 278.384 20.504C279.024 21.6347 279.344 23 279.344 24.6V35H275.728V25.144C275.728 23.5653 275.333 22.36 274.544 21.528C273.755 20.6747 272.677 20.248 271.312 20.248C269.947 20.248 268.859 20.6747 268.048 21.528C267.259 22.36 266.864 23.5653 266.864 25.144V35H263.248V25.144C263.248 23.5653 262.853 22.36 262.064 21.528C261.275 20.6747 260.197 20.248 258.832 20.248C257.467 20.248 256.379 20.6747 255.568 21.528C254.779 22.36 254.384 23.5653 254.384 25.144V35H250.736V17.368H254.384V19.384C254.981 18.6587 255.739 18.0933 256.656 17.688C257.573 17.2827 258.555 17.08 259.6 17.08C261.008 17.08 262.267 17.3787 263.376 17.976C264.485 18.5733 265.339 19.4373 265.936 20.568C266.469 19.5013 267.301 18.6587 268.432 18.04C269.563 17.4 270.779 17.08 272.08 17.08ZM299.946 35.288C298.282 35.288 296.778 34.9147 295.434 34.168C294.09 33.4 293.034 32.3333 292.266 30.968C291.498 29.5813 291.114 27.9813 291.114 26.168C291.114 24.376 291.509 22.7867 292.298 21.4C293.088 20.0133 294.165 18.9467 295.53 18.2C296.896 17.4533 298.421 17.08 300.106 17.08C301.792 17.08 303.317 17.4533 304.682 18.2C306.048 18.9467 307.125 20.0133 307.914 21.4C308.704 22.7867 309.098 24.376 309.098 26.168C309.098 27.96 308.693 29.5493 307.882 30.936C307.072 32.3227 305.962 33.4 304.554 34.168C303.168 34.9147 301.632 35.288 299.946 35.288ZM299.946 32.12C300.885 32.12 301.76 31.896 302.57 31.448C303.402 31 304.074 30.328 304.586 29.432C305.098 28.536 305.354 27.448 305.354 26.168C305.354 24.888 305.109 23.8107 304.618 22.936C304.128 22.04 303.477 21.368 302.666 20.92C301.856 20.472 300.981 20.248 300.042 20.248C299.104 20.248 298.229 20.472 297.418 20.92C296.629 21.368 296 22.04 295.53 22.936C295.061 23.8107 294.826 24.888 294.826 26.168C294.826 28.0667 295.306 29.5387 296.266 30.584C297.248 31.608 298.474 32.12 299.946 32.12ZM328.673 17.368V35H325.025V32.92C324.449 33.6453 323.691 34.2213 322.753 34.648C321.835 35.0533 320.854 35.256 319.809 35.256C318.422 35.256 317.174 34.968 316.065 34.392C314.977 33.816 314.113 32.9627 313.473 31.832C312.854 30.7013 312.545 29.336 312.545 27.736V17.368H316.161V27.192C316.161 28.7707 316.555 29.9867 317.345 30.84C318.134 31.672 319.211 32.088 320.577 32.088C321.942 32.088 323.019 31.672 323.809 30.84C324.619 29.9867 325.025 28.7707 325.025 27.192V17.368H328.673ZM337.134 19.928C337.667 19.032 338.371 18.3387 339.246 17.848C340.142 17.336 341.198 17.08 342.414 17.08V20.856H341.486C340.057 20.856 338.969 21.2187 338.222 21.944C337.497 22.6693 337.134 23.928 337.134 25.72V35H333.486V17.368H337.134V19.928ZM363.2 17.08C364.544 17.08 365.738 17.368 366.784 17.944C367.85 18.52 368.682 19.3733 369.28 20.504C369.898 21.6347 370.208 23 370.208 24.6V35H366.592V25.144C366.592 23.5653 366.197 22.36 365.408 21.528C364.618 20.6747 363.541 20.248 362.176 20.248C360.81 20.248 359.722 20.6747 358.912 21.528C358.122 22.36 357.728 23.5653 357.728 25.144V35H354.08V11.32H357.728V19.416C358.346 18.6693 359.125 18.0933 360.064 17.688C361.024 17.2827 362.069 17.08 363.2 17.08ZM382.509 35.288C380.845 35.288 379.341 34.9147 377.997 34.168C376.653 33.4 375.597 32.3333 374.829 30.968C374.061 29.5813 373.677 27.9813 373.677 26.168C373.677 24.376 374.072 22.7867 374.861 21.4C375.65 20.0133 376.728 18.9467 378.093 18.2C379.458 17.4533 380.984 17.08 382.669 17.08C384.354 17.08 385.88 17.4533 387.245 18.2C388.61 18.9467 389.688 20.0133 390.477 21.4C391.266 22.7867 391.661 24.376 391.661 26.168C391.661 27.96 391.256 29.5493 390.445 30.936C389.634 32.3227 388.525 33.4 387.117 34.168C385.73 34.9147 384.194 35.288 382.509 35.288ZM382.509 32.12C383.448 32.12 384.322 31.896 385.133 31.448C385.965 31 386.637 30.328 387.149 29.432C387.661 28.536 387.917 27.448 387.917 26.168C387.917 24.888 387.672 23.8107 387.181 22.936C386.69 22.04 386.04 21.368 385.229 20.92C384.418 20.472 383.544 20.248 382.605 20.248C381.666 20.248 380.792 20.472 379.981 20.92C379.192 21.368 378.562 22.04 378.093 22.936C377.624 23.8107 377.389 24.888 377.389 26.168C377.389 28.0667 377.869 29.5387 378.829 30.584C379.81 31.608 381.037 32.12 382.509 32.12ZM401.667 35.288C400.281 35.288 399.033 35.0427 397.923 34.552C396.835 34.04 395.971 33.3573 395.331 32.504C394.691 31.6293 394.35 30.6587 394.307 29.592H398.083C398.147 30.3387 398.499 30.968 399.139 31.48C399.801 31.9707 400.622 32.216 401.603 32.216C402.627 32.216 403.417 32.024 403.971 31.64C404.547 31.2347 404.835 30.7227 404.835 30.104C404.835 29.4427 404.515 28.952 403.875 28.632C403.257 28.312 402.265 27.96 400.899 27.576C399.577 27.2133 398.499 26.8613 397.667 26.52C396.835 26.1787 396.11 25.656 395.491 24.952C394.894 24.248 394.595 23.32 394.595 22.168C394.595 21.2293 394.873 20.376 395.427 19.608C395.982 18.8187 396.771 18.2 397.795 17.752C398.841 17.304 400.035 17.08 401.379 17.08C403.385 17.08 404.995 17.592 406.211 18.616C407.449 19.6187 408.11 20.9947 408.195 22.744H404.547C404.483 21.9547 404.163 21.3253 403.587 20.856C403.011 20.3867 402.233 20.152 401.251 20.152C400.291 20.152 399.555 20.3333 399.043 20.696C398.531 21.0587 398.275 21.5387 398.275 22.136C398.275 22.6053 398.446 23 398.787 23.32C399.129 23.64 399.545 23.896 400.035 24.088C400.526 24.2587 401.251 24.4827 402.211 24.76C403.491 25.1013 404.537 25.4533 405.347 25.816C406.179 26.1573 406.894 26.6693 407.491 27.352C408.089 28.0347 408.398 28.9413 408.419 30.072C408.419 31.0747 408.142 31.9707 407.587 32.76C407.033 33.5493 406.243 34.168 405.219 34.616C404.217 35.064 403.033 35.288 401.667 35.288ZM416.617 20.344V30.104C416.617 30.7653 416.766 31.2453 417.065 31.544C417.385 31.8213 417.918 31.96 418.665 31.96H420.905V35H418.025C416.382 35 415.124 34.616 414.249 33.848C413.374 33.08 412.937 31.832 412.937 30.104V20.344H410.857V17.368H412.937V12.984H416.617V17.368H420.905V20.344H416.617ZM430.667 35.288C429.281 35.288 428.033 35.0427 426.923 34.552C425.835 34.04 424.971 33.3573 424.331 32.504C423.691 31.6293 423.35 30.6587 423.307 29.592H427.083C427.147 30.3387 427.499 30.968 428.139 31.48C428.801 31.9707 429.622 32.216 430.603 32.216C431.627 32.216 432.417 32.024 432.971 31.64C433.547 31.2347 433.835 30.7227 433.835 30.104C433.835 29.4427 433.515 28.952 432.875 28.632C432.257 28.312 431.265 27.96 429.899 27.576C428.577 27.2133 427.499 26.8613 426.667 26.52C425.835 26.1787 425.11 25.656 424.491 24.952C423.894 24.248 423.595 23.32 423.595 22.168C423.595 21.2293 423.873 20.376 424.427 19.608C424.982 18.8187 425.771 18.2 426.795 17.752C427.841 17.304 429.035 17.08 430.379 17.08C432.385 17.08 433.995 17.592 435.211 18.616C436.449 19.6187 437.11 20.9947 437.195 22.744H433.547C433.483 21.9547 433.163 21.3253 432.587 20.856C432.011 20.3867 431.233 20.152 430.251 20.152C429.291 20.152 428.555 20.3333 428.043 20.696C427.531 21.0587 427.275 21.5387 427.275 22.136C427.275 22.6053 427.446 23 427.787 23.32C428.129 23.64 428.545 23.896 429.035 24.088C429.526 24.2587 430.251 24.4827 431.211 24.76C432.491 25.1013 433.537 25.4533 434.347 25.816C435.179 26.1573 435.894 26.6693 436.491 27.352C437.089 28.0347 437.398 28.9413 437.419 30.072C437.419 31.0747 437.142 31.9707 436.587 32.76C436.033 33.5493 435.243 34.168 434.219 34.616C433.217 35.064 432.033 35.288 430.667 35.288Z" fill="#151515"/>
<g clip-path="url(#clip2_2227_25456)">
<path d="M459.02 16.7205C458.442 17.0967 457.68 16.6635 457.707 15.9741L457.882 11.5841C457.889 11.4082 457.841 11.2344 457.745 11.0868L455.349 7.40381C454.973 6.82542 455.406 6.06349 456.096 6.09093L460.486 6.26553C460.662 6.27256 460.836 6.22477 460.983 6.12872L464.666 3.73334C465.244 3.35714 466.006 3.79031 465.979 4.47973L465.804 8.8697C465.797 9.04567 465.845 9.21943 465.941 9.367L468.337 13.05C468.713 13.6284 468.28 14.3903 467.59 14.3629L463.2 14.1883C463.024 14.1813 462.851 14.2291 462.703 14.3251L459.02 16.7205Z" fill="#FFB49C"/>
</g>
<defs>
<clipPath id="clip0_2227_25456">
<rect width="25" height="25" fill="white" transform="translate(31.7578 23.6484) rotate(161.074)"/>
</clipPath>
<clipPath id="clip1_2227_25456">
<rect width="10" height="10" fill="white" transform="translate(54.6172 9.95947) rotate(174.827)"/>
</clipPath>
<clipPath id="clip2_2227_25456">
<rect width="15" height="15" fill="white" transform="translate(464.656 20.4536) rotate(-150.381)"/>
</clipPath>
</defs>
</svg>
