<svg width="30" height="31" viewBox="0 0 30 31" fill="none" xmlns="http://www.w3.org/2000/svg">
<path d="M22.5 9.25011H22.0625C22.3478 8.66606 22.4973 8.02509 22.5 7.37511C22.5038 6.50427 22.2468 5.65222 21.7623 4.92865C21.2777 4.20507 20.5876 3.64309 19.7809 3.31503C18.9742 2.98697 18.0878 2.90786 17.2358 3.08787C16.3837 3.26789 15.6051 3.69879 15 4.32511C14.3949 3.69879 13.6163 3.26789 12.7642 3.08787C11.9122 2.90786 11.0258 2.98697 10.2191 3.31503C9.41237 3.64309 8.72232 4.20507 8.23774 4.92865C7.75315 5.65222 7.49622 6.50427 7.5 7.37511C7.50267 8.02509 7.65223 8.66606 7.9375 9.25011H7.5C6.50544 9.25011 5.55161 9.6452 4.84835 10.3485C4.14509 11.0517 3.75 12.0055 3.75 13.0001V15.5001C3.75 15.8316 3.8817 16.1496 4.11612 16.384C4.35054 16.6184 4.66848 16.7501 5 16.7501H6.25V24.2501C6.25 25.2447 6.64509 26.1985 7.34835 26.9018C8.05161 27.605 9.00544 28.0001 10 28.0001H20C20.9946 28.0001 21.9484 27.605 22.6517 26.9018C23.3549 26.1985 23.75 25.2447 23.75 24.2501V16.7501H25C25.3315 16.7501 25.6495 16.6184 25.8839 16.384C26.1183 16.1496 26.25 15.8316 26.25 15.5001V13.0001C26.25 12.0055 25.8549 11.0517 25.1517 10.3485C24.4484 9.6452 23.4946 9.25011 22.5 9.25011ZM13.75 25.5001H10C9.66848 25.5001 9.35054 25.3684 9.11612 25.134C8.8817 24.8996 8.75 24.5816 8.75 24.2501V16.7501H13.75V25.5001ZM13.75 14.2501H6.25V13.0001C6.25 12.6686 6.3817 12.3506 6.61612 12.1162C6.85054 11.8818 7.16848 11.7501 7.5 11.7501H13.75V14.2501ZM13.75 9.25011H11.875C11.5042 9.25011 11.1416 9.14014 10.8333 8.93411C10.525 8.72809 10.2846 8.43525 10.1427 8.09264C10.0008 7.75003 9.96368 7.37303 10.036 7.00931C10.1084 6.6456 10.287 6.31151 10.5492 6.04928C10.8114 5.78706 11.1455 5.60848 11.5092 5.53613C11.8729 5.46379 12.2499 5.50092 12.5925 5.64283C12.9351 5.78475 13.228 6.02507 13.434 6.33341C13.64 6.64176 13.75 7.00427 13.75 7.37511V9.25011ZM16.25 7.37511C16.25 7.00427 16.36 6.64176 16.566 6.33341C16.772 6.02507 17.0649 5.78475 17.4075 5.64283C17.7501 5.50092 18.1271 5.46379 18.4908 5.53613C18.8545 5.60848 19.1886 5.78706 19.4508 6.04928C19.713 6.31151 19.8916 6.6456 19.964 7.00931C20.0363 7.37303 19.9992 7.75003 19.8573 8.09264C19.7154 8.43525 19.475 8.72809 19.1667 8.93411C18.8584 9.14014 18.4958 9.25011 18.125 9.25011H16.25V7.37511ZM21.25 24.2501C21.25 24.5816 21.1183 24.8996 20.8839 25.134C20.6495 25.3684 20.3315 25.5001 20 25.5001H16.25V16.7501H21.25V24.2501ZM23.75 14.2501H16.25V11.7501H22.5C22.8315 11.7501 23.1495 11.8818 23.3839 12.1162C23.6183 12.3506 23.75 12.6686 23.75 13.0001V14.2501Z" fill="black"/>
</svg>
