<svg width="55" height="32" viewBox="0 0 55 32" fill="none" xmlns="http://www.w3.org/2000/svg">
<g clip-path="url(#clip0_3219_17074)">
<path d="M20.8756 26.57C20.7073 27.7075 19.3255 28.1813 18.4947 27.3864L13.2036 22.3244C12.9916 22.1215 12.7218 21.9895 12.4315 21.9466L5.18792 20.875C4.05034 20.7067 3.57654 19.325 4.37152 18.4941L9.43341 13.203C9.63636 12.991 9.76837 12.7212 9.81126 12.4309L10.8829 5.18731C11.0511 4.04974 12.4329 3.57594 13.2638 4.37091L18.5548 9.43281C18.7669 9.63574 19.0366 9.76775 19.3269 9.81068L26.5706 10.8822C27.7081 11.0505 28.1819 12.4323 27.387 13.2632L22.325 18.5542C22.1221 18.7663 21.9901 19.036 21.9472 19.3263L20.8756 26.57Z" fill="#FFB49C"/>
</g>
<g clip-path="url(#clip1_3219_17074)">
<path d="M50.1113 10.0597C49.9377 10.4857 49.3558 10.5384 49.1086 10.1505L47.5342 7.68062C47.4711 7.58164 47.3789 7.5047 47.2701 7.46041L44.5577 6.35523C44.1317 6.18168 44.079 5.59975 44.4669 5.35252L46.9368 3.77816C47.0358 3.71508 47.1127 3.62281 47.157 3.51408L48.2622 0.801629C48.4357 0.375646 49.0176 0.322961 49.2649 0.710849L50.8392 3.18071C50.9023 3.27972 50.9946 3.35666 51.1033 3.40094L53.8158 4.50612C54.2417 4.67967 54.2944 5.26159 53.9066 5.50883L51.4367 7.08319C51.3377 7.14628 51.2608 7.23855 51.2165 7.34724L50.1113 10.0597Z" fill="#FFB49C"/>
</g>
<defs>
<clipPath id="clip0_3219_17074">
<rect width="25" height="25" fill="white" transform="translate(31.7578 23.6484) rotate(161.074)"/>
</clipPath>
<clipPath id="clip1_3219_17074">
<rect width="10" height="10" fill="white" transform="translate(54.6172 9.95947) rotate(174.827)"/>
</clipPath>
</defs>
</svg>
