<svg width="30" height="31" viewBox="0 0 30 31" fill="none" xmlns="http://www.w3.org/2000/svg">
<path d="M15.8875 20.8625L15.7 20.7125C15.6303 20.6652 15.5547 20.6274 15.475 20.6L15.25 20.5C15.0473 20.4576 14.8372 20.4663 14.6387 20.5252C14.4401 20.5841 14.2593 20.6914 14.1125 20.8375C14.0021 20.959 13.9133 21.0985 13.85 21.25C13.7554 21.4778 13.7303 21.7284 13.7778 21.9704C13.8254 22.2124 13.9434 22.4349 14.1171 22.61C14.2908 22.785 14.5125 22.9048 14.7541 22.9542C14.9957 23.0035 15.2465 22.9803 15.475 22.8875C15.6244 22.815 15.7631 22.7225 15.8875 22.6125C16.0609 22.4367 16.1784 22.2135 16.2252 21.971C16.2719 21.7285 16.2457 21.4776 16.15 21.25C16.0877 21.1055 15.9986 20.974 15.8875 20.8625ZM20 3H10C9.00544 3 8.05161 3.39509 7.34835 4.09835C6.64509 4.80161 6.25 5.75544 6.25 6.75V24.25C6.25 25.2446 6.64509 26.1984 7.34835 26.9017C8.05161 27.6049 9.00544 28 10 28H20C20.9946 28 21.9484 27.6049 22.6517 26.9017C23.3549 26.1984 23.75 25.2446 23.75 24.25V6.75C23.75 5.75544 23.3549 4.80161 22.6517 4.09835C21.9484 3.39509 20.9946 3 20 3ZM21.25 24.25C21.25 24.5815 21.1183 24.8995 20.8839 25.1339C20.6495 25.3683 20.3315 25.5 20 25.5H10C9.66848 25.5 9.35054 25.3683 9.11612 25.1339C8.8817 24.8995 8.75 24.5815 8.75 24.25V6.75C8.75 6.41848 8.8817 6.10054 9.11612 5.86612C9.35054 5.6317 9.66848 5.5 10 5.5H20C20.3315 5.5 20.6495 5.6317 20.8839 5.86612C21.1183 6.10054 21.25 6.41848 21.25 6.75V24.25Z" fill="black"/>
</svg>
