<svg width="23" height="31" viewBox="0 0 23 31" fill="none" xmlns="http://www.w3.org/2000/svg">
<path d="M18.0097 9.25H15.2472C15.0064 8.33974 14.5809 7.48876 13.9972 6.75H18.0097C18.3412 6.75 18.6591 6.6183 18.8936 6.38388C19.128 6.14946 19.2597 5.83152 19.2597 5.5C19.2597 5.16848 19.128 4.85054 18.8936 4.61612C18.6591 4.3817 18.3412 4.25 18.0097 4.25H4.25967C3.92815 4.25 3.61021 4.3817 3.37579 4.61612C3.14137 4.85054 3.00967 5.16848 3.00967 5.5C3.00967 5.83152 3.14137 6.14946 3.37579 6.38388C3.61021 6.6183 3.92815 6.75 4.25967 6.75H8.63467C9.45997 6.7529 10.2676 6.98917 10.9644 7.43154C11.6611 7.87391 12.2185 8.50433 12.5722 9.25H4.25967C3.92815 9.25 3.61021 9.3817 3.37579 9.61612C3.14137 9.85054 3.00967 10.1685 3.00967 10.5C3.00967 10.8315 3.14137 11.1495 3.37579 11.3839C3.61021 11.6183 3.92815 11.75 4.25967 11.75H13.0097C12.8598 12.7883 12.3419 13.7381 11.5503 14.4264C10.7587 15.1148 9.74617 15.4958 8.69717 15.5H4.25967C4.20149 15.4942 4.14286 15.4942 4.08467 15.5C4.00184 15.4871 3.91751 15.4871 3.83467 15.5C3.74947 15.529 3.66933 15.5712 3.59717 15.625L3.44717 15.7125C3.3787 15.7743 3.31973 15.8459 3.27217 15.925C3.23031 15.9804 3.1927 16.0389 3.15967 16.1C3.14855 16.1746 3.14855 16.2504 3.15967 16.325C3.0706 16.4497 3.0186 16.597 3.00967 16.75C3.00382 16.8082 3.00382 16.8668 3.00967 16.925C2.99678 17.0078 2.99678 17.0922 3.00967 17.175C3.03869 17.2602 3.08087 17.3403 3.13467 17.4125C3.13467 17.4125 3.13467 17.5125 3.22217 17.5625L10.7222 26.3125C10.9377 26.5645 11.2444 26.7205 11.5749 26.7463C11.9055 26.7721 12.2327 26.6655 12.4847 26.45C12.7366 26.2345 12.8927 25.9278 12.9185 25.5972C12.9442 25.2667 12.8377 24.9395 12.6222 24.6875L6.98467 18H8.63467C10.3547 18.0071 12.015 17.3692 13.2878 16.2121C14.5605 15.0551 15.3533 13.463 15.5097 11.75H18.0097C18.3412 11.75 18.6591 11.6183 18.8936 11.3839C19.128 11.1495 19.2597 10.8315 19.2597 10.5C19.2597 10.1685 19.128 9.85054 18.8936 9.61612C18.6591 9.3817 18.3412 9.25 18.0097 9.25Z" fill="black"/>
</svg>
