<svg width="14" height="14" viewBox="0 0 14 14" fill="none" xmlns="http://www.w3.org/2000/svg">
<path d="M4.01989 13.7205C3.44151 14.0967 2.67958 13.6635 2.70701 12.9741L2.88163 8.58409C2.88864 8.40818 2.84084 8.23442 2.7448 8.0868L0.349424 4.40381C-0.0267758 3.82542 0.406396 3.06349 1.09582 3.09093L5.48579 3.26553C5.66175 3.27256 5.8355 3.22477 5.98311 3.12872L9.66611 0.73334C10.2445 0.357136 11.0064 0.790308 10.979 1.47973L10.8044 5.8697C10.7974 6.04567 10.8452 6.21943 10.9412 6.367L13.3366 10.05C13.7128 10.6284 13.2796 11.3903 12.5902 11.3629L8.20017 11.1883C8.02425 11.1813 7.8505 11.2291 7.70291 11.3251L4.01989 13.7205Z" fill="#FFB49C"/>
</svg>
