<svg width="30" height="31" viewBox="0 0 30 31" fill="none" xmlns="http://www.w3.org/2000/svg">
<path d="M24.5375 5.0624C24.3923 4.94492 24.2226 4.86149 24.0409 4.81823C23.8592 4.77496 23.6701 4.77297 23.4875 4.8124C22.1518 5.09233 20.7729 5.09589 19.4358 4.82288C18.0987 4.54986 16.8316 4.00604 15.7125 3.2249C15.5033 3.07974 15.2547 3.00195 15 3.00195C14.7453 3.00195 14.4968 3.07974 14.2875 3.2249C13.1685 4.00604 11.9014 4.54986 10.5642 4.82288C9.22708 5.09589 7.84821 5.09233 6.51251 4.8124C6.32993 4.77297 6.14084 4.77496 5.95913 4.81823C5.77743 4.86149 5.60773 4.94492 5.46251 5.0624C5.31748 5.18005 5.20066 5.32869 5.12062 5.49742C5.04059 5.66614 4.99937 5.85065 5.00001 6.0374V15.3499C4.9989 17.1421 5.42597 18.9086 6.24568 20.5023C7.06538 22.0961 8.25398 23.4709 9.71251 24.5124L14.275 27.7624C14.4867 27.9131 14.7401 27.9941 15 27.9941C15.2599 27.9941 15.5133 27.9131 15.725 27.7624L20.2875 24.5124C21.746 23.4709 22.9346 22.0961 23.7543 20.5023C24.574 18.9086 25.0011 17.1421 25 15.3499V6.0374C25.0006 5.85065 24.9594 5.66614 24.8794 5.49742C24.7994 5.32869 24.6825 5.18005 24.5375 5.0624ZM22.5 15.3499C22.501 16.7433 22.1691 18.1169 21.5321 19.3562C20.895 20.5955 19.9712 21.6647 18.8375 22.4749L15 25.2124L11.1625 22.4749C10.0288 21.6647 9.10499 20.5955 8.46794 19.3562C7.8309 18.1169 7.49905 16.7433 7.50001 15.3499V7.4749C10.1205 7.69919 12.7451 7.09118 15 5.7374C17.255 7.09118 19.8795 7.69919 22.5 7.4749V15.3499ZM16.925 12.4874L13.5625 15.8624L12.45 14.7374C12.2146 14.502 11.8954 14.3698 11.5625 14.3698C11.2296 14.3698 10.9104 14.502 10.675 14.7374C10.4396 14.9728 10.3074 15.292 10.3074 15.6249C10.3074 15.9578 10.4396 16.277 10.675 16.5124L12.675 18.5124C12.7912 18.6296 12.9295 18.7226 13.0818 18.786C13.2341 18.8495 13.3975 18.8821 13.5625 18.8821C13.7275 18.8821 13.8909 18.8495 14.0432 18.786C14.1956 18.7226 14.3338 18.6296 14.45 18.5124L18.75 14.2499C18.9854 14.0145 19.1176 13.6953 19.1176 13.3624C19.1176 13.0295 18.9854 12.7103 18.75 12.4749C18.5146 12.2395 18.1954 12.1073 17.8625 12.1073C17.5296 12.1073 17.2104 12.2395 16.975 12.4749L16.925 12.4874Z" fill="black"/>
</svg>
