<svg width="30" height="31" viewBox="0 0 30 31" fill="none" xmlns="http://www.w3.org/2000/svg">
<path d="M26.25 12.9999C26.4142 12.9999 26.5767 12.9676 26.7284 12.9048C26.8801 12.842 27.0179 12.7499 27.134 12.6339C27.2501 12.5178 27.3421 12.38 27.4049 12.2283C27.4677 12.0766 27.5 11.914 27.5 11.7499V7.99987C27.5001 7.73759 27.4176 7.48194 27.2642 7.26918C27.1109 7.05642 26.8944 6.89737 26.6455 6.81457L15.3955 3.06458C15.1388 2.97913 14.8612 2.97913 14.6045 3.06458L3.35449 6.81457C3.10562 6.89737 2.88914 7.05642 2.73576 7.26918C2.58238 7.48194 2.49989 7.73759 2.5 7.99987V11.7499C2.49996 11.914 2.53226 12.0766 2.59506 12.2283C2.65787 12.38 2.74994 12.5178 2.86602 12.6339C2.9821 12.7499 3.11992 12.842 3.2716 12.9048C3.42327 12.9676 3.58584 12.9999 3.75 12.9999H5V21.9802C4.27092 22.237 3.63921 22.7132 3.19158 23.3434C2.74396 23.9736 2.50238 24.7269 2.5 25.4999V27.9999C2.49996 28.164 2.53226 28.3266 2.59506 28.4783C2.65787 28.63 2.74994 28.7678 2.86602 28.8839C2.9821 28.9999 3.11992 29.092 3.2716 29.1548C3.42327 29.2176 3.58584 29.2499 3.75 29.2499H26.25C26.4142 29.2499 26.5767 29.2176 26.7284 29.1548C26.8801 29.092 27.0179 28.9999 27.134 28.8839C27.2501 28.7678 27.3421 28.63 27.4049 28.4783C27.4677 28.3266 27.5 28.164 27.5 27.9999V25.4999C27.4976 24.7269 27.256 23.9736 26.8084 23.3434C26.3608 22.7132 25.7291 22.237 25 21.9802V12.9999H26.25ZM25 26.7499H5V25.4999C5.00033 25.1685 5.13213 24.8507 5.36648 24.6164C5.60083 24.382 5.91858 24.2502 6.25 24.2499H23.75C24.0814 24.2502 24.3992 24.382 24.6335 24.6164C24.8679 24.8507 24.9997 25.1685 25 25.4999V26.7499ZM7.5 21.7499V12.9999H10V21.7499H7.5ZM12.5 21.7499V12.9999H17.5V21.7499H12.5ZM20 21.7499V12.9999H22.5V21.7499H20ZM5 10.4999V8.90075L15 5.567L25 8.90075V10.4999H5Z" fill="black"/>
</svg>
