<svg width="645" height="235" viewBox="0 0 645 235" fill="none" xmlns="http://www.w3.org/2000/svg">
<path opacity="0.5" d="M645 10.5946V235H98.0692C92.6313 224.106 89.3686 211.439 89.0302 196.942C89.006 196.548 89.006 196.126 89.006 195.732C88.9577 191.51 89.1994 187.4 89.7311 183.459C93.4289 155.253 110.782 134.226 132.944 120.602C133.863 120.011 134.781 119.448 135.724 118.913H135.748C161.149 104.275 192.205 99.0676 216.253 103.684C247.478 109.68 275.683 128.286 304.781 142.783C318.654 149.68 333.324 155.704 348.188 158.941C350.146 159.363 352.079 159.757 354.037 160.095C354.061 160.095 354.061 160.095 354.061 160.095C355.269 160.292 356.478 160.461 357.71 160.63C359.426 160.855 361.142 161.052 362.858 161.165C374.362 162.122 385.842 161.024 396.96 157.027C420.427 148.582 437.901 129.3 454.021 107.259C454.722 106.33 455.423 105.373 456.1 104.416C477.996 74.0148 497.742 39.1379 527.179 20.3906C529.088 19.1801 531.022 18.026 532.979 16.9845C535.807 15.4363 538.683 14.057 541.608 12.8184C573.681 -0.749493 610.173 3.66993 645 10.5946Z" fill="#121318"/>
<path opacity="0.4" d="M60 235C66.6461 215.67 76.7481 197.472 89.7503 181.652C93.4721 177.122 97.4114 172.793 101.592 168.689C118.848 151.738 138.617 139.822 159.087 133.652C159.087 133.652 159.087 133.652 159.111 133.652C160.295 133.311 161.431 132.973 162.615 132.661C162.615 132.661 162.615 132.661 162.64 132.661C176.27 129.038 190.142 127.963 203.7 129.66C222.454 132.011 241.184 138.831 259.31 145.424C290.293 156.717 319.608 167.386 348.198 156.999C349.117 156.686 350.059 156.32 351.002 155.923C380.293 143.867 399.313 111.83 417.68 80.8663C421.402 74.6116 425.244 68.1316 429.087 61.9613C452.916 23.7544 491.923 -11.6235 529.89 3.63057C534.071 5.32796 537.962 7.50671 541.611 10.0824C557.344 21.2323 568.582 39.8839 579.53 58.0261C592.871 80.157 605.486 101.075 625.376 109.224C631.756 111.828 638.281 112.875 645 112.987V121.449C637.556 121.336 630.209 120.205 622.983 117.232C600.894 108.205 587.022 85.1957 573.585 62.9212C561.453 42.7973 549.925 23.6672 532.983 14.271C531.243 13.2801 529.431 12.4328 527.546 11.6672C493.276 -2.08653 457.242 31.2252 434.936 66.9691C431.141 73.0549 427.323 79.4786 423.649 85.7052C416.351 98.0148 408.955 110.468 400.811 121.902V121.93C399.192 124.222 397.524 126.46 395.784 128.666C395.76 128.666 395.76 128.666 395.76 128.695C386.238 141.12 375.58 151.873 362.868 159.234C359.847 161.016 356.705 162.572 353.418 163.932C351.775 164.61 350.107 165.232 348.464 165.77C345.975 166.592 343.461 167.298 340.948 167.836H340.924C313.107 173.922 284.734 163.591 257.159 153.517C239.372 147.065 220.98 140.357 202.927 138.091C192.873 136.847 182.626 137.215 172.427 139.082H172.403C171.147 139.31 169.914 139.591 168.657 139.845C146.52 144.796 124.842 156.883 106.257 175.194C99.9732 181.365 94.2213 188.073 89.0494 195.203C80.1799 207.428 73.0263 220.872 67.8545 234.994" fill="#DD0429"/>
<path opacity="0.4" d="M0 234C14.9408 216.885 27.1476 195.548 38.7116 175.575C44.7304 165.18 50.9547 154.426 57.5416 144.269C81.6508 107.085 107.612 85.8239 134.701 81.0769C170.053 74.8801 202.864 96.5439 234.609 117.486C266.335 138.416 299.146 160.06 334.039 153.267C356.19 148.954 375.305 133.552 393.792 118.658C410.674 105.055 428.133 90.9908 448.119 84.9982C481.909 74.8801 522.373 89.6165 553.726 123.475C582.068 154.079 600.335 196.251 618 235H616C598.417 196.428 580.424 155.537 552.334 125.205C528.155 99.0965 488.211 75.4231 448.631 87.2906C429.001 93.174 411.696 107.116 394.96 120.601C376.289 135.645 356.983 151.202 334.379 155.602C298.772 162.543 265.641 140.68 233.599 119.543C202.156 98.7998 169.637 77.3487 135.011 83.4168C108.467 88.0687 82.9537 109.022 59.1756 145.688C52.6226 155.798 46.4128 166.523 40.4109 176.893C28.7913 196.964 17.5882 216.717 2.5 234" fill="white"/>
</svg>
