<svg width="547" height="276" viewBox="0 0 547 276" fill="none" xmlns="http://www.w3.org/2000/svg">
<mask id="mask0_1538_299" style="mask-type:alpha" maskUnits="userSpaceOnUse" x="0" y="0" width="547" height="276">
<rect width="547" height="276" fill="#C4C4C4"/>
</mask>
<g mask="url(#mask0_1538_299)">
<g opacity="0.1">
<path d="M-29.8589 263.994L-29.9563 263.209C-28.888 263.077 77.1397 249.528 102.184 203.701C116.145 178.154 134.961 161.507 158.105 154.229C184.912 145.796 217.029 150.274 253.555 167.529C293.434 186.37 326.793 177.037 347.761 165.888C383.422 146.929 409.621 108.979 416.133 66.845C422.056 28.5312 453.602 12.3352 479.022 5.49386C506.5 -1.90073 532.938 -0.243731 533.199 -0.227925L533.146 0.562375C532.883 0.5413 506.565 -1.10516 479.206 6.26308C454.02 13.0439 422.769 29.0817 416.912 66.9661C410.36 109.339 384.006 147.514 348.129 166.586C327.003 177.816 293.387 187.221 253.218 168.243C167.322 127.661 124.052 165.332 102.876 204.078C89.6722 228.235 54.2665 243.243 26.8886 251.575C-2.73369 260.593 -29.5932 263.959 -29.8589 263.994Z" fill="#E4E4E4"/>
<path d="M-29.9141 262.943L-30.0693 262.168C-29.6983 262.094 7.47029 254.592 42.3708 239.557C69.3882 227.919 87.7989 213.182 95.6162 196.944C112.919 161.009 142.886 141.565 179.913 142.308C201.076 142.775 223.109 148.072 247.277 158.499C258.776 163.459 270.579 166.294 283.367 167.163C335.602 170.709 384.901 139.192 406.09 88.739C409.958 79.5293 412.855 70.3829 414.699 61.5552C423.793 18.1018 465.355 5.00386 489.323 1.06289C513.559 -2.92023 534.18 -0.828568 534.383 -0.810128L534.301 -0.0224611C534.096 -0.0461701 513.57 -2.12203 489.452 1.84265C465.684 5.74938 424.469 18.7261 415.473 61.7185C413.615 70.5989 410.702 79.7927 406.816 89.0472C396.736 113.046 379.241 134.052 357.546 148.196C335.015 162.888 309.35 169.724 283.312 167.951C270.435 167.076 258.544 164.221 246.964 159.223C222.896 148.839 200.957 143.562 179.897 143.099C143.178 142.424 113.49 161.647 96.3293 197.287C88.4277 213.699 69.8776 228.567 42.6813 240.282C7.70447 255.35 -29.5431 262.869 -29.9141 262.943Z" fill="#E4E4E4"/>
<path d="M-29.9667 261.891L-30.1825 261.133C-29.8325 261.033 5.36003 250.919 39.0423 234.821C56.932 226.27 80.1288 211.589 89.0539 190.193C104.302 153.625 134.869 133.344 172.806 134.526C194.971 135.219 216.639 139.966 240.999 149.468C252.087 153.794 263.972 156.125 277.341 156.6C331.516 158.499 382.201 128.865 403.443 82.8012C407.821 73.307 411.036 64.6295 413.273 56.2707C425.219 11.6029 471.215 1.20514 490.436 -1.1921C515.049 -4.26374 535.37 -1.41602 535.572 -1.38704L535.459 -0.604648C535.259 -0.633626 515.038 -3.46554 490.534 -0.407071C471.47 1.9691 425.858 12.272 414.036 56.4762C411.789 64.8798 408.558 73.5994 404.161 83.1357C393.468 106.305 375.623 125.585 352.552 138.881C329.913 151.926 303.919 158.314 277.31 157.382C263.854 156.905 251.882 154.555 240.71 150.198C216.437 140.733 194.853 136.002 172.779 135.311C135.153 134.11 104.896 154.244 89.7801 190.493C82.6416 207.611 65.2151 223.185 39.3817 235.532C5.63632 251.66 -29.6168 261.789 -29.9667 261.891Z" fill="#E4E4E4"/>
<path d="M-30.0168 260.835L-30.2983 260.097C-29.9668 259.971 3.24973 247.21 35.7137 230.084C60.0736 217.234 76.2477 201.104 82.4863 183.438C88.3882 166.731 98.4079 152.656 111.464 142.74C126.578 131.262 144.815 125.886 165.693 126.737C188.974 127.696 210.261 131.918 234.716 140.433C246.801 144.64 258.928 145.483 271.326 146.031C326.629 148.475 378.699 120.686 400.793 76.8555C405.761 67.0004 409.271 58.776 411.842 50.9731C417.441 33.9763 428.66 20.4358 445.187 10.7204C458.304 3.01232 474.767 -2.02454 491.539 -3.46025C516.548 -5.59933 536.551 -2.01137 536.751 -1.97712L536.609 -1.19999C536.409 -1.23687 516.504 -4.80376 491.604 -2.67522C476.814 -1.41073 427.413 6.21832 412.589 51.2181C410.008 59.0605 406.482 67.3165 401.496 77.2085C390.215 99.5845 371.558 117.975 347.537 130.391C324.448 142.324 298.089 148.001 271.29 146.816C258.833 146.262 246.643 145.417 234.455 141.173C210.077 132.688 188.859 128.478 165.659 127.522C127.051 125.925 96.2134 146.932 83.2283 183.694C76.9213 201.549 60.6156 217.832 36.0768 230.777C3.57337 247.929 -29.6853 260.706 -30.0168 260.835Z" fill="#E4E4E4"/>
<path d="M-30.0668 259.773L-30.4167 259.062C-30.1036 258.909 1.13685 243.462 32.3852 225.345C55.5242 211.929 70.58 195.1 75.9241 176.681C80.6997 160.216 90.4247 145.554 103.307 135.393C118.292 123.573 137.424 117.888 158.587 118.95C182.681 120.156 204.222 123.997 228.44 131.397C238.965 134.613 250.335 135.865 265.288 135.464C328.142 133.762 376.567 110.233 398.149 70.9124C402.201 63.531 406.824 54.7613 410.418 45.6807C416.925 29.2319 428.842 16.2209 445.84 7.01124C459.569 -0.428132 476.193 -4.95129 492.654 -5.72052C518.072 -6.91387 537.748 -2.60146 537.943 -2.55931L537.772 -1.78745C537.577 -1.83223 518.014 -6.12884 492.691 -4.93021C463.832 -3.57616 425.158 10.5676 411.155 45.9731C407.545 55.0958 402.906 63.8919 398.843 71.2944C377.125 110.867 328.455 134.545 265.311 136.255C250.269 136.665 238.823 135.398 228.211 132.153C204.059 124.771 182.575 120.944 158.55 119.74C111.056 117.358 84.7623 149.047 76.6792 176.905C71.2773 195.522 56.0978 212.511 32.7773 226.03C1.51049 244.162 -29.7563 259.621 -30.0668 259.773Z" fill="#E4E4E4"/>
<path d="M-30.1194 258.712L-30.5352 258.04C-30.2431 257.858 -0.978651 239.687 29.0541 220.614C51.0564 206.641 64.9913 189.115 69.3565 169.932C76.4661 138.707 104.599 108.425 151.472 111.165C176.742 112.643 197.879 115.991 222.154 122.366C234.955 125.728 247.553 125.57 259.257 124.901C329.313 120.886 373.876 101.284 395.496 64.972C400.417 56.7107 405.15 48.6154 408.987 40.3909C424.861 6.35265 463.663 -9.70628 493.783 -7.98079C519.556 -6.50029 538.895 -3.18366 539.087 -3.14941L538.953 -2.36964C538.761 -2.40389 519.464 -5.71526 493.736 -7.19049C463.869 -8.91598 425.427 7.00597 409.7 40.7255C405.85 48.9815 401.104 57.0979 396.173 65.375C374.407 101.929 329.634 121.658 259.299 125.691C247.527 126.363 234.86 126.521 221.952 123.13C197.729 116.768 176.637 113.428 151.424 111.955C105.01 109.263 77.1607 139.21 70.1275 170.106C65.7149 189.497 51.6563 207.192 29.4777 221.278C-0.557653 240.356 -29.8274 258.53 -30.1194 258.712Z" fill="#E4E4E4"/>
<path d="M-30.1694 257.642L-30.6509 257.015C-30.3772 256.807 -3.10199 235.869 25.7257 215.877C46.6702 201.352 59.4895 183.13 62.7969 163.183C65.4703 147.058 74.3059 131.6 87.041 120.773C102.157 107.917 121.976 101.908 144.362 103.381C170.874 105.132 191.59 108.014 215.873 113.336C227.396 115.862 239.144 115.562 253.232 114.337C308.971 109.495 365.664 101.234 392.852 59.0315L394.441 56.5631C399.204 49.187 403.701 42.2192 407.561 35.0985C425.69 1.67669 466.074 -13.21 494.888 -10.2411C521.006 -7.54876 540.074 -3.77112 540.264 -3.73424L540.108 -2.95974C539.919 -2.99662 520.885 -6.76636 494.807 -9.45339C466.261 -12.3959 426.216 2.35108 408.25 35.4779C404.374 42.6249 399.87 49.6032 395.099 56.9925L393.51 59.4583C380.959 78.9419 361.022 92.8011 332.558 101.824C306.848 109.974 278.162 112.964 253.295 115.125C239.128 116.357 227.319 116.652 215.697 114.108C191.458 108.797 170.774 105.917 144.304 104.171C96.1161 100.999 68.6593 132.595 63.5705 163.309C60.2262 183.475 47.2938 201.879 26.1703 216.528C-2.63363 236.507 -29.8984 257.434 -30.1694 257.642Z" fill="#E4E4E4"/>
<path d="M-30.2245 256.573L-30.7639 255.996C-30.5113 255.759 -5.23318 232.021 22.3999 211.146C42.6603 195.838 54.0456 177.429 56.2374 156.431C59.5896 124.316 89.1093 92.0845 137.253 95.5961C164.788 97.6088 185.749 100.13 209.593 104.305C221.744 106.434 234.321 105.269 247.209 103.773C251.961 103.223 256.794 102.698 261.678 102.169C309.537 96.9818 363.782 91.1019 390.208 53.0911C391.658 51.0047 393.113 48.9394 394.56 46.8872C398.701 41.0153 402.611 35.4647 406.142 29.8088C426.019 -2.04037 466.655 -14.4402 495.975 -12.5013C522.692 -10.7258 541.308 -4.36913 541.492 -4.3059L541.235 -3.56039C541.05 -3.62361 522.527 -9.94602 495.922 -11.7137C466.826 -13.642 426.516 -1.34754 406.813 30.225C403.269 35.8994 399.354 41.4578 395.204 47.3403C393.76 49.3898 392.302 51.4551 390.855 53.5389C364.224 91.8475 309.79 97.7457 261.762 102.951C256.881 103.481 252.048 104.002 247.298 104.553C234.353 106.054 221.712 107.221 209.456 105.08C185.638 100.91 164.704 98.3885 137.197 96.3785C89.5276 92.9117 60.3395 124.761 57.0268 156.507C54.8087 177.732 43.3207 196.325 22.8788 211.77C-4.72272 232.627 -29.9719 256.333 -30.2245 256.573Z" fill="#E4E4E4"/>
<path d="M-30.2799 255.498L-30.8745 254.979C-30.643 254.713 -7.37771 228.14 19.0713 206.412C38.4345 190.506 48.7304 171.418 49.6777 149.682C50.3802 133.578 58.6238 117.034 71.7352 105.43C82.2654 96.1072 100.963 85.4882 130.138 87.8117C159.607 90.1562 180.123 92.2505 203.307 95.2748C214.805 96.7737 226.256 95.3643 241.181 93.2121C251.035 91.7895 261.107 90.7384 271.769 89.6267C316.562 84.9534 362.882 80.122 387.558 47.1533C389.868 44.0658 392.239 41.0047 394.528 38.0437C398.128 33.3915 401.53 28.9974 404.716 24.5243C425.982 -5.33328 467.258 -17.8253 497.077 -14.7563C524.234 -11.9455 542.487 -4.9513 542.669 -4.88018L542.384 -4.1452C542.205 -4.21369 524.042 -11.171 496.996 -13.9686C467.426 -17.035 426.45 -4.63255 405.358 24.9827C402.161 29.4716 398.757 33.871 395.152 38.5285C392.863 41.4868 390.495 44.5453 388.19 47.6275C363.303 80.8728 316.812 85.7226 271.847 90.4144C261.194 91.5261 251.129 92.5772 241.291 93.9971C226.306 96.1599 214.8 97.5745 203.202 96.0624C180.031 93.0382 159.529 90.9492 130.075 88.602C101.155 86.3127 82.6732 96.8079 72.2562 106.023C59.3027 117.488 51.1564 133.823 50.4644 149.716C49.5067 171.686 39.1133 190.97 19.5713 207.023C-6.82779 228.709 -30.0483 255.232 -30.2799 255.498Z" fill="#E4E4E4"/>
<path d="M-30.3404 254.423L-30.9824 253.962C-30.7719 253.667 -9.54323 224.228 15.7428 201.678C34.5508 184.903 43.5048 165.685 43.118 142.93C42.8496 127.169 50.3671 110.578 63.2285 98.5545C73.8007 88.6679 92.7718 77.4219 123.026 80.0246C139.884 81.4682 153.692 82.6168 166.604 83.6916C176.955 84.553 186.725 85.3644 197.023 86.2443C208.585 87.2295 220.491 85.1747 234.279 82.7986L235.155 82.6458C248.422 80.3591 262.986 79.1026 277.068 77.8855C318.454 74.3133 361.254 70.62 384.914 41.2076C388.09 37.2587 391.376 33.4021 394.554 29.6718C397.617 26.0786 400.506 22.6856 403.298 19.2293C426.647 -9.6852 469.605 -21.0313 498.188 -17.0192C525.789 -13.1494 543.679 -5.54665 543.855 -5.46762L543.545 -4.74318C543.368 -4.81957 525.566 -12.3828 498.077 -16.2368C469.721 -20.2226 427.079 -8.96075 403.911 19.7246C401.114 23.1887 398.22 26.5844 395.154 30.1829C391.979 33.9105 388.697 37.7619 385.527 41.7029C361.656 71.3761 318.688 75.0852 277.136 78.6705C263.07 79.885 248.524 81.1415 235.289 83.4229L234.413 83.573C220.573 85.9624 208.624 88.0303 196.958 87.0293C186.659 86.1521 176.889 85.3381 166.541 84.4766C153.632 83.4018 139.821 82.2532 122.962 80.8096C92.9691 78.2385 74.227 89.3528 63.7731 99.1288C51.2617 110.825 43.6522 127.603 43.9127 142.914C44.3047 165.915 35.2638 185.33 16.2743 202.266C-8.94858 224.76 -30.1273 254.131 -30.3404 254.423Z" fill="#E4E4E4"/>
<path d="M-30.4036 253.348L-31.0851 252.948C-30.893 252.624 -11.7219 220.293 12.4195 196.947C30.475 179.481 38.3739 159.605 36.5662 136.181C35.3927 120.994 42.3734 103.947 54.7875 91.6894C65.3755 81.2364 84.5808 69.3819 115.916 72.2428C148.288 75.2011 168.546 76.3391 190.74 77.219C201.554 77.6484 212.663 75.4066 225.538 72.8118L229.132 72.09C244.848 68.9472 262.538 67.8698 279.649 66.8266C318.767 64.4451 359.217 61.9846 382.269 35.2751C386.34 30.557 390.6 26.0259 394.715 21.645C397.204 18.9975 399.554 16.4949 401.874 13.9475C427.582 -14.2663 471.262 -24.2162 499.29 -19.2716C527.331 -14.3164 544.86 -6.12357 545.034 -6.0419L544.697 -5.328C544.523 -5.40966 527.081 -13.5603 499.153 -18.4944C471.323 -23.4127 427.971 -13.5287 402.456 14.477C400.13 17.0296 397.778 19.5323 395.286 22.1824C391.173 26.558 386.921 31.0812 382.861 35.7888C359.591 62.7486 318.973 65.2222 279.691 67.6142C262.607 68.6548 244.943 69.7296 229.279 72.8618L225.685 73.5836C212.761 76.189 201.594 78.4308 190.703 78.0067C168.498 77.1295 148.227 75.9888 115.84 73.0278C84.7965 70.1801 65.8017 81.9134 55.3347 92.2506C43.0838 104.347 36.19 121.157 37.3477 136.118C39.1764 159.792 31.2012 179.874 12.9616 197.513C-11.0931 220.785 -30.2141 253.024 -30.4036 253.348Z" fill="#E4E4E4"/>
<path d="M-30.472 252.273L-31.1851 251.931C-31.014 251.578 -13.9216 216.333 9.09105 192.216C26.4676 174.002 33.3114 153.467 30.0093 129.432C27.9674 114.582 34.2455 97.4902 46.3965 84.8243C61.3418 69.2422 83.5099 62.0215 108.804 64.4583C139.337 67.414 161.094 69.2633 184.438 68.1911C196.126 67.6511 207.906 64.9772 222.823 61.5895L223.104 61.5262C240.652 57.5405 260.912 56.9056 280.507 56.2892C318.07 55.1116 356.915 53.8919 379.622 29.3372C384.648 23.9052 389.966 18.7867 395.11 13.8342C396.915 12.0981 398.701 10.3779 400.454 8.66559C427.534 -17.7858 472.531 -27.4565 500.395 -21.5213C528.868 -15.4597 546.044 -6.70314 546.215 -6.61621L545.852 -5.91284C545.684 -5.99977 528.591 -14.7115 500.232 -20.7494C472.575 -26.6345 427.895 -17.0324 401.006 9.23198C399.251 10.9469 397.462 12.6698 395.654 14.4058C390.518 19.3478 385.208 24.4585 380.198 29.8773C357.267 54.6743 318.257 55.8993 280.53 57.0821C260.973 57.6959 240.752 58.3308 223.278 62.3007L222.996 62.364C208.04 65.7623 196.231 68.444 184.472 68.9867C161.081 70.072 139.292 68.2069 108.725 65.2512C83.673 62.8171 61.7392 69.9746 46.9648 85.3802C34.9796 97.8748 28.7805 114.716 30.7907 129.331C34.1297 153.62 27.2202 174.371 9.66202 192.769C-13.2664 216.789 -30.301 251.92 -30.472 252.273Z" fill="#E4E4E4"/>
<path d="M-30.543 251.199L-31.2771 250.914C-31.1271 250.53 -16.1449 212.353 5.7705 187.482C22.7629 168.196 28.3832 147.603 23.4602 122.677C20.6343 108.375 26.3703 90.8175 38.074 77.9461C52.9641 61.5684 75.5557 54.021 101.697 56.6712C137.061 60.2697 157.174 60.2934 178.173 59.1606C187.712 58.6496 197.489 56.0811 208.811 53.1069C211.464 52.4114 214.216 51.687 217.087 50.9599C236.05 46.1443 258.494 46.176 280.215 46.1549C316.668 46.1496 354.444 46.1707 376.983 23.3942C383.072 17.243 389.597 11.5792 395.91 6.09975L399.043 3.37585C428.46 -22.2694 474.241 -30.5781 501.508 -23.7868C530.41 -16.5924 547.236 -7.29585 547.402 -7.20365L547.018 -6.51345C546.852 -6.60566 530.107 -15.8522 501.319 -23.0202C474.252 -29.7589 428.787 -21.5055 399.562 3.97121L396.425 6.69512C390.126 12.164 383.611 17.8173 377.544 23.9474C355.215 46.5132 318.331 46.9426 282.346 46.9426C280.928 46.9426 279.515 46.9399 278.102 46.9426C257.099 46.9426 235.537 47.0901 217.284 51.7239C214.413 52.451 211.666 53.1754 209.014 53.8709C197.65 56.8556 187.835 59.432 178.215 59.9483C157.181 61.081 137.029 61.0573 101.618 57.4562C75.7426 54.8192 53.3772 62.2849 38.6581 78.4756C27.1176 91.1705 21.4578 108.46 24.2364 122.522C29.2147 147.711 23.5339 168.517 6.36515 188.003C-15.4608 212.772 -30.393 250.819 -30.543 251.199Z" fill="#E4E4E4"/>
<path d="M-30.6167 250.129L-31.3718 249.895C-31.2429 249.484 -18.3894 208.356 2.44463 182.751C18.8634 162.572 23.4576 141.336 16.9058 115.925C13.2984 101.934 18.3609 84.3212 29.7988 71.0494C38.3713 61.11 58.1844 45.0116 94.5821 48.884C131.151 52.775 150.617 52.2876 171.885 50.1327C180.86 49.2239 190.043 46.5237 200.673 43.3993C203.983 42.4246 207.406 41.421 211.056 40.3962C231.135 34.7666 255.51 35.5648 279.083 36.3393C314.849 37.5142 351.831 38.7234 374.331 17.4564C381.627 10.557 389.558 4.37689 397.225 -1.60306L397.617 -1.90864C429.394 -26.6846 475.954 -33.6366 502.608 -26.0444C531.925 -17.6962 548.412 -7.88068 548.576 -7.78321L548.17 -7.10619C548.007 -7.20366 531.599 -16.9665 502.392 -25.2858C475.922 -32.8252 429.681 -25.9075 398.101 -1.28694L397.709 -0.981356C390.055 4.98542 382.14 11.155 374.873 18.028C352.131 39.5269 314.984 38.3072 279.057 37.127C255.539 36.3551 231.229 35.5569 211.269 41.1549C207.622 42.177 204.201 43.1833 200.894 44.1554C190.224 47.2929 181.01 50.001 171.961 50.9177C150.643 53.0779 131.13 53.5653 94.4953 49.6664C67.7752 46.8319 45.0178 54.6006 30.3935 71.5657C19.116 84.6452 14.122 101.979 17.6662 115.725C24.2864 141.402 19.6423 162.856 3.05244 183.246C-17.6816 208.736 -30.4904 249.715 -30.6167 250.129Z" fill="#E4E4E4"/>
<path d="M-30.6929 249.057L-31.4612 248.872C-31.3533 248.43 -20.66 204.347 -0.881128 178.019C15.0036 156.879 18.5715 135.001 10.3542 109.174C5.99425 95.475 10.4016 77.7959 21.5816 64.1316C30.0778 53.7418 49.933 36.9373 87.47 41.0996C125.033 45.2618 144.562 44.2581 165.602 41.1075C174.05 39.843 182.67 37.0348 192.648 33.784C196.568 32.5064 200.623 31.1866 205.036 29.8325C226.014 23.4021 252.116 25.1144 277.357 26.7714C312.639 29.0843 349.127 31.4816 371.692 11.5159C379.562 4.55075 388.116 -1.54511 396.202 -7.19313C411.489 -17.8675 431.331 -25.81 452.07 -29.5587C471.465 -33.0623 490.292 -32.604 503.716 -28.3021C533.436 -18.7763 549.599 -8.46815 549.757 -8.36541L549.331 -7.70156C549.17 -7.80429 533.086 -18.0598 503.474 -27.5487C478.18 -35.6572 430.142 -29.9327 396.652 -6.54508C388.584 -0.912867 380.049 5.16982 372.21 12.106C349.403 32.2903 312.747 29.8852 277.305 27.5591C252.129 25.9073 226.101 24.2003 205.265 30.5886C200.857 31.94 196.808 33.2598 192.89 34.5348C182.878 37.7961 174.229 40.6149 165.715 41.8899C144.615 45.0458 125.033 46.0574 87.3806 41.8846C50.233 37.7671 30.5909 54.3687 22.192 64.6321C11.1778 78.0936 6.82572 95.4829 11.1067 108.931C19.4082 135.024 15.8008 157.126 -0.249636 178.494C-19.9312 204.695 -30.5876 248.617 -30.6929 249.057Z" fill="#E4E4E4"/>
<path d="M-30.7746 247.99L-31.5508 247.85C-31.4666 247.379 -22.9546 200.332 -4.2045 173.288C11.1724 151.107 13.7167 128.586 3.8023 102.416C-1.20754 89.1973 2.65246 71.0178 13.4089 57.1822C21.8209 46.3604 41.7024 28.8684 80.3524 33.3125C118.884 37.7434 138.479 36.2182 159.313 32.0849C167.254 30.5069 175.326 27.6171 184.678 24.2714C189.18 22.6592 193.834 20.9943 199.007 19.2741C220.715 12.0586 248.393 14.7773 275.158 17.4064C310.158 20.8468 346.348 24.4005 369.042 5.58081C377.467 -1.40283 386.779 -7.46181 394.778 -12.4697C410.997 -22.6198 431.555 -29.9775 452.66 -33.1888C472.589 -36.2209 491.602 -35.262 504.818 -30.5544C534.93 -19.83 550.778 -9.04768 550.936 -8.93967L550.488 -8.28899C550.333 -8.397 534.556 -19.124 504.553 -29.8089C479.853 -38.6023 431.021 -34.2188 395.196 -11.7979C387.219 -6.80586 377.933 -0.765316 369.545 6.19197C346.593 25.2224 310.237 21.6503 275.081 18.1967C248.393 15.5729 220.802 12.8621 199.257 20.0275C194.092 21.7451 189.44 23.41 184.943 25.0196C175.563 28.3757 167.462 31.2761 159.465 32.8646C138.558 37.0137 118.892 38.5469 80.2603 34.1028C42.0024 29.7113 22.3393 46.9821 14.0299 57.6722C3.43657 71.2997 -0.378702 89.171 4.53642 102.142C14.5508 128.578 11.9775 151.331 -3.56248 173.744C-22.2073 200.643 -30.6904 247.518 -30.7746 247.99Z" fill="#E4E4E4"/>
<path d="M-30.8536 246.923L-31.6377 246.828C-31.5772 246.325 -25.2728 196.312 -7.52782 168.559C7.36226 145.269 8.88311 122.106 -2.74689 95.6673C-8.454 82.6905 -5.22287 64.4188 5.28886 50.1986C13.6009 38.9552 33.4798 20.802 73.2402 25.5333C112.924 30.254 131.898 28.3072 153.029 23.0649C160.465 21.2182 168.001 18.2783 176.726 14.8721C181.794 12.8937 187.033 10.8495 192.987 8.7183C215.294 0.728355 244.427 4.52707 272.605 8.19934C307.466 12.7436 343.509 17.4406 366.4 -0.351723C373.66 -5.99448 381.974 -11.358 393.362 -17.7436C410.523 -27.3695 431.791 -34.145 453.249 -36.8189C474.001 -39.4058 492.709 -37.978 505.923 -32.8041C536.411 -20.8653 551.962 -9.62723 552.115 -9.51396L551.649 -8.87644C551.496 -8.98709 536.017 -20.1699 505.634 -32.0692C478.001 -42.891 427.805 -36.1577 393.747 -17.0561C382.395 -10.6889 374.11 -5.34643 366.882 0.272614C343.73 18.2678 307.519 13.5471 272.503 8.98174C244.417 5.32001 215.384 1.53446 193.25 9.46119C187.309 11.5897 182.075 13.6313 177.013 15.6071C168.261 19.0238 160.702 21.9743 153.219 23.8315C132.001 29.1002 112.953 31.0575 73.1481 26.3183C33.785 21.6292 14.1324 39.5664 5.92299 50.6702C-4.42561 64.669 -7.61991 82.6247 -2.02593 95.3485C9.71984 122.053 8.18057 145.454 -6.86475 168.989C-24.5097 196.589 -30.7904 246.423 -30.8536 246.923Z" fill="#E4E4E4"/>
<path d="M-30.9349 245.859L-31.7217 245.801C-31.6822 245.269 -27.6091 192.29 -10.8508 163.828C3.56037 139.355 4.05503 115.551 -9.29578 88.9102C-15.6712 76.1811 -13.0768 57.8408 -2.83876 43.2676C11.1014 23.4311 36.2375 14.1345 66.1282 17.7462C106.591 22.7857 125.678 20.3278 146.744 14.0423C153.672 11.9743 160.668 9.01333 168.772 5.58342C174.135 3.31525 180.21 0.744144 186.964 -1.84805C209.777 -10.5941 240.273 -5.65994 269.761 -0.889153C304.593 4.7457 340.617 10.5755 363.756 -6.28954C371.508 -11.9402 380.464 -17.2589 391.942 -23.0255C428.858 -41.5712 479.406 -46.8557 507.029 -35.0618C537.877 -21.8875 553.144 -10.2121 553.294 -10.0935L552.809 -9.46919C552.659 -9.5851 537.461 -21.2052 506.716 -34.3321C479.288 -46.047 429.026 -40.7678 392.294 -22.3142C380.854 -16.5661 371.934 -11.2711 364.219 -5.64677C340.815 11.4132 304.63 5.55708 269.635 -0.104118C240.247 -4.8591 209.859 -9.77741 187.246 -1.10516C180.502 1.47912 174.435 4.05023 169.08 6.31577C160.957 9.75358 153.94 12.7225 146.97 14.8036C125.802 21.1234 106.633 23.5918 66.0308 18.5365C36.4401 14.959 11.5751 24.1371 -2.19411 43.7287C-12.2717 58.07 -14.8424 76.0862 -8.59061 88.5625C4.89176 115.467 4.3892 139.513 -10.172 164.239C-26.8355 192.532 -30.8955 245.329 -30.9349 245.859Z" fill="#E4E4E4"/>
<path d="M-31.0167 244.795L-31.806 244.771C-31.7902 244.21 -29.9721 188.267 -14.1716 159.097C-0.244534 133.383 -0.776041 108.934 -15.8424 82.1531C-22.8967 69.6137 -20.897 51.139 -10.872 36.1786C2.8682 15.6835 28.3332 6.12873 59.0185 9.9617C100.473 15.2567 119.626 12.3063 140.465 5.01967C146.864 2.78312 153.3 -0.154167 160.752 -3.5551C166.651 -6.24739 173.335 -9.29796 180.944 -12.4065C204.183 -21.9006 235.955 -15.7837 266.688 -9.87225C301.593 -3.15468 337.688 3.79207 361.114 -12.2247C369.324 -17.8358 378.943 -23.094 390.523 -28.2994C429.515 -45.8178 481.177 -49.7798 508.134 -37.3168C539.324 -22.8911 554.325 -10.7943 554.472 -10.6731L553.972 -10.0646C553.825 -10.1831 538.893 -22.2247 507.802 -36.6029C481.024 -48.9869 429.652 -45.0222 390.847 -27.5829C379.309 -22.3959 369.729 -17.1615 361.559 -11.5767C337.862 4.62452 301.601 -2.35647 266.538 -9.10038C235.921 -14.9934 204.259 -21.0814 181.241 -11.6794C173.645 -8.57615 166.97 -5.52822 161.078 -2.83856C153.608 0.570274 147.156 3.51547 140.723 5.76519C119.773 13.0913 100.534 16.0549 58.9185 10.7467C28.5621 6.94537 3.35234 16.3789 -10.2169 36.6186C-20.0813 51.3366 -22.0653 69.4793 -15.153 81.7659C0.0580578 108.807 0.592194 133.502 -13.4769 159.476C-29.188 188.478 -31.0009 244.236 -31.0167 244.795Z" fill="#E4E4E4"/>
<path d="M-31.8901 243.743C-31.8954 243.153 -32.3532 184.252 -17.4921 154.366C-4.24126 127.722 -5.84368 101.89 -22.3888 75.3908C-29.9957 63.2122 -28.5511 44.1528 -18.8761 29.0448C-5.35164 7.9148 20.4422 -1.8744 51.9064 2.17194C94.3348 7.71195 113.556 4.27414 134.182 -4.00558C140.023 -6.35014 145.87 -9.2163 152.64 -12.5356C159.087 -15.6968 166.393 -19.2768 174.924 -22.9755C198.523 -33.202 231.516 -25.8706 263.42 -18.7816C298.475 -10.9892 334.726 -2.93604 358.47 -18.1678C367.103 -23.7052 377.409 -28.8895 389.105 -33.5813C430.152 -50.0459 482.919 -52.6803 509.239 -39.5771C540.758 -23.8869 555.506 -11.3844 555.654 -11.2579L555.141 -10.6573C554.996 -10.7811 540.311 -23.2257 508.889 -38.8658C482.748 -51.8768 430.263 -49.2345 389.4 -32.8437C377.752 -28.1704 367.487 -23.0071 358.899 -17.496C334.873 -2.08778 298.462 -10.1805 263.251 -18.0045C231.466 -25.0698 198.6 -32.3721 175.24 -22.2431C166.728 -18.5524 159.429 -14.975 152.99 -11.819C146.207 -8.49186 140.347 -5.62043 134.477 -3.26534C113.73 5.06445 94.4137 8.52069 51.809 2.96224C20.6711 -1.05513 -4.85697 8.61026 -18.213 29.4716C-27.7275 44.3345 -29.1721 63.0462 -21.7205 74.9719C-5.01748 101.721 -3.40454 127.806 -16.7869 154.716C-31.5639 184.431 -31.1087 243.143 -31.1008 243.733L-31.8901 243.743Z" fill="#E4E4E4"/>
<path d="M-31.9744 242.713C-32.0034 242.092 -34.7583 180.243 -20.8154 149.634C-8.0698 121.652 -10.7273 95.1588 -28.9406 68.6311C-37.2079 56.5948 -36.3502 37.3641 -26.8593 21.8663C-13.548 0.132984 12.5695 -9.8775 44.7888 -5.61251C88.4276 0.206745 107.012 -3.54192 127.893 -13.0255C133.132 -15.4043 138.344 -18.1388 144.381 -21.3053C151.398 -24.9854 159.352 -29.1609 168.896 -33.5339C192.795 -44.4795 226.94 -35.8969 259.96 -27.5961C295.247 -18.7236 331.737 -9.54558 355.82 -24.0977C365.085 -29.6482 375.804 -34.6139 387.679 -38.8526C431.46 -54.4848 484.192 -55.7624 510.336 -41.8268C542.166 -24.8616 556.68 -11.9613 556.822 -11.8348L556.296 -11.2447C556.153 -11.3738 541.698 -24.2136 509.965 -41.1287C483.995 -54.9695 431.539 -53.6681 387.942 -38.1071C376.115 -33.8842 365.445 -28.9422 356.225 -23.418C331.86 -8.70259 295.207 -17.9175 259.765 -26.8268C226.875 -35.096 192.869 -43.6471 169.222 -32.8121C159.697 -28.447 151.753 -24.2794 144.744 -20.6019C138.95 -17.5619 133.477 -14.6904 128.217 -12.3011C107.199 -2.75689 88.5065 1.01812 44.6809 -4.82221C12.78 -9.05032 -13.0533 0.831085 -26.191 22.2851C-35.524 37.5248 -36.3896 56.4025 -28.296 68.1885C-9.91166 94.9613 -7.23307 121.71 -20.1024 149.964C-33.9584 180.398 -31.214 242.055 -31.1851 242.674L-31.9744 242.713Z" fill="#E4E4E4"/>
<path d="M-32.056 241.681C-32.1086 241.03 -37.1763 176.244 -24.1333 144.906C-11.914 115.543 -15.6266 88.3833 -35.4871 61.874C-44.4148 49.9589 -44.1385 30.5385 -34.8161 14.6535C-28.6222 4.10029 -9.16697 -19.7589 37.6793 -13.3917C93.1507 -5.85224 108.343 -14.3612 135.921 -29.8168C143.546 -34.0897 152.193 -38.9316 162.875 -44.0897C187.051 -55.7572 222.317 -45.9153 256.421 -36.3921C291.953 -26.4712 328.698 -16.2105 353.178 -30.0276C375.865 -42.8278 406.853 -51.6476 438.196 -54.224C468.95 -56.7477 495.643 -53.0517 511.441 -44.0739C543.56 -25.8205 557.861 -12.5382 558.001 -12.4065L557.461 -11.8296C557.322 -11.9613 543.079 -25.1857 511.052 -43.3863C495.388 -52.2851 468.855 -55.9495 438.262 -53.4337C407.026 -50.8652 376.157 -42.0823 353.568 -29.3347C328.8 -15.3596 291.897 -25.6625 256.21 -35.6255C222.249 -45.1118 187.133 -54.9168 163.22 -43.3705C152.558 -38.223 143.925 -33.3864 136.311 -29.1187C108.585 -13.5814 93.3191 -5.01716 37.5767 -12.6014C-8.80911 -18.9159 -28.0249 4.63243 -34.1346 15.0512C-43.2992 30.6702 -43.5965 49.7297 -34.8529 61.3998C-14.8109 88.1515 -11.0667 115.567 -23.4019 145.209C-36.3712 176.37 -31.3192 240.97 -31.2666 241.618L-32.056 241.681Z" fill="#E4E4E4"/>
</g>
</g>
</svg>
