<?xml version="1.0" encoding="UTF-8"?>
<!DOCTYPE svg PUBLIC "-//W3C//DTD SVG 1.1//EN" "http://www.w3.org/Graphics/SVG/1.1/DTD/svg11.dtd">
<!-- Creator: CorelDRAW 2021.5 -->
<svg xmlns="http://www.w3.org/2000/svg" xml:space="preserve" width="235.306mm" height="49.11mm" version="1.1" style="shape-rendering:geometricPrecision; text-rendering:geometricPrecision; image-rendering:optimizeQuality; fill-rule:evenodd; clip-rule:evenodd"
viewBox="0 0 23529.52 4910.78"
 xmlns:xlink="http://www.w3.org/1999/xlink"
 xmlns:xodm="http://www.corel.com/coreldraw/odm/2003">
 <defs>
  <style type="text/css">
   <![CDATA[
    .fil1 {fill:#ECECEC}
    .fil19 {fill:#31A8FF}
    .fil14 {fill:#969696}
    .fil17 {fill:#96C03A}
    .fil22 {fill:#B8002B}
    .fil16 {fill:#BDD981}
    .fil23 {fill:#FF5638}
    .fil12 {fill:#C6C7C7;fill-rule:nonzero}
    .fil9 {fill:#A7A7A7;fill-rule:nonzero}
    .fil7 {fill:#B7CCD8;fill-rule:nonzero}
    .fil11 {fill:#969696;fill-rule:nonzero}
    .fil24 {fill:#1387D4;fill-rule:nonzero}
    .fil18 {fill:#31A8FF;fill-rule:nonzero}
    .fil13 {fill:#969696;fill-rule:nonzero}
    .fil0 {fill:#96C03A;fill-rule:nonzero}
    .fil2 {fill:#A1D929;fill-rule:nonzero}
    .fil21 {fill:#B8002B;fill-rule:nonzero}
    .fil15 {fill:#BDD981;fill-rule:nonzero}
    .fil3 {fill:#D7EFFE;fill-rule:nonzero}
    .fil20 {fill:#DD0031;fill-rule:nonzero}
    .fil6 {fill:#212121;fill-rule:nonzero;fill-opacity:0.101961}
    .fil10 {fill:white;fill-rule:nonzero;fill-opacity:0.101961}
    .fil5 {fill:white;fill-rule:nonzero;fill-opacity:0.200000}
    .fil4 {fill:#86755E;fill-rule:nonzero;fill-opacity:0.301961}
    .fil8 {fill:white;fill-rule:nonzero;fill-opacity:0.400000}
   ]]>
  </style>
 </defs>
 <g id="Layer_x0020_1">
  <metadata id="CorelCorpID_0Corel-Layer"/>
  <g id="_105553565143200">
   <path class="fil0" d="M3731.62 4909.69l0 -3700.23 -1925.21 0c-672.21,1.16 -1193.07,805.59 -1193.07,1502 0,696.03 520.86,1611.01 1193.07,1612.36l1461.38 0.01 0 584.12 -1456.57 0c-1172.7,-1.55 -1808.71,-962.83 -1811.22,-2139 2.51,-1176.76 643.33,-2137.83 1816.03,-2138.99l2504.73 -0.01 0 4279.55 -589.13 0.2z"/>
   <rect class="fil1" x="12305.41" y="4863.7" width="566.42" height="45.99" rx="51.49" ry="22.99"/>
   <circle id="circle60" class="fil2" cx="2287.98" cy="2161.92" r="157.29"/>
   <path id="path113" class="fil3" d="M2542.32 2350.66l-290.68 0 739.91 1281.46 170.66 98.47c4.71,2.67 10.06,4.24 15.88,4.24 17.3,0 31.46,-14.15 31.46,-31.46l0 -197.24 -667.23 -1155.47z"/>
   <path id="path115" class="fil4" d="M2542.32 2350.66l-290.68 0 739.91 1281.46 170.66 98.47c4.71,2.67 10.06,4.24 15.88,4.24 17.3,0 31.46,-14.15 31.46,-31.46l0 -197.24 -667.23 -1155.47z"/>
   <polygon id="polygon117" class="fil5" points="3209.4,3506.13 2542.32,2350.66 2533.2,2350.66 3209.4,3521.86 "/>
   <path id="path119" class="fil6" d="M3177.94 3719.1c-5.82,0 -11.17,-1.57 -15.88,-4.24l-170.66 -98.47 -730.63 -1265.73 -9.12 0 739.91 1281.46 170.66 98.47c4.71,2.67 10.06,4.24 15.88,4.24 17.3,0 31.46,-14.15 31.46,-31.46l0 -15.73c-0.15,17.3 -14.31,31.46 -31.62,31.46z"/>
   <path id="path133" class="fil7" d="M2917.15 2350.66c0,347.46 -281.71,629.17 -629.16,629.17 -103.35,0 -200.86,-25.01 -286.91,-69.21l286.91 -497.05 36.33 -62.92 -290.68 0 -667.23 1155.47 0 197.24c0,17.31 14.16,31.46 31.46,31.46 5.82,0 11.17,-1.57 15.89,-4.24l170.66 -98.47 290.68 -503.34c123.16,65.43 263.63,102.71 412.89,102.71 486.5,0.01 880.83,-394.32 880.83,-880.83l-251.67 0z"/>
   <path id="path135" class="fil8" d="M2033.64 2350.66l-667.23 1155.47 0 15.73 676.36 -1171.2 -9.13 0zm254.35 629.17c-103.35,0 -200.86,-25.01 -286.91,-69.21l0 15.73c86.05,44.2 183.56,69.21 286.91,69.21 347.45,0 629.16,-281.71 629.16,-629.17l251.2 0c0.16,-5.19 0.47,-10.38 0.47,-15.73l-251.67 0c0,347.46 -281.71,629.17 -629.16,629.17z"/>
   <path id="path137" class="fil6" d="M2324.31 2350.66l-9.12 0 -314.27 544.24 0 15.73 323.39 -559.96zm844.03 0c-8.49,479.12 -399.2,865.11 -880.36,865.11 -149.27,0 -289.74,-37.28 -412.89,-102.72l-290.68 503.34 -170.66 98.47c-4.72,2.67 -10.07,4.24 -15.89,4.24 -17.3,0 -31.46,-14.15 -31.46,-31.46l0 15.73c0,17.31 14.16,31.46 31.46,31.46 5.82,0 11.17,-1.57 15.89,-4.24l170.66 -98.47 290.68 -503.34c123.16,65.43 263.63,102.71 412.89,102.71 486.5,0.01 880.83,-394.32 880.83,-880.83l-0.47 0z"/>
   <path id="path152" class="fil9" d="M2571.1 1784.42l-157.28 0 0 -188.75 -251.67 0 0 188.75 -157.29 0c-51.9,0 -94.38,42.47 -94.38,94.38l0 471.87 310.82 310.5c17.14,16.99 40.58,27.69 66.69,27.69 26.11,0 49.7,-10.54 66.69,-27.69l310.82 -310.5 0 -471.87c0,-51.91 -42.48,-94.38 -94.38,-94.38l-0.01 0zm-283.12 534.79c-86.83,0 -157.29,-70.46 -157.29,-157.29 0,-86.83 70.46,-157.29 157.29,-157.29 86.83,0 157.29,70.47 157.29,157.29 0,86.83 -70.47,157.29 -157.29,157.29z"/>
   <path id="path165" class="fil10" d="M2571.1 1784.42l-157.28 0 0 15.73 157.28 0c51.91,0 94.38,42.47 94.38,94.38l0 -15.73c0,-51.91 -42.47,-94.38 -94.38,-94.38zm-157.28 -188.75l-251.67 0 0 15.72 251.67 0.01 0 -15.73zm-251.67 188.75l-157.29 0c-51.9,0 -94.38,42.47 -94.38,94.38l0 15.73c0,-51.91 42.48,-94.38 94.38,-94.38l157.29 0 0 -15.73zm125.83 534.79c-86.83,0 -157.29,-70.47 -157.29,-157.29l0 15.73c0,86.83 70.47,157.29 157.29,157.29 86.83,0 157.29,-70.47 157.29,-157.29l0 -15.73c0,86.83 -70.47,157.29 -157.29,157.29z"/>
   <path id="path174" class="fil6" d="M2287.99 2004.63c86.83,0 157.29,70.46 157.29,157.29l0 -15.74c0,-86.82 -70.47,-157.29 -157.29,-157.29 -86.83,0 -157.29,70.48 -157.29,157.29l0 15.73c0,-86.83 70.47,-157.28 157.29,-157.28zm66.69 640.8c-17.14,16.99 -40.58,27.68 -66.69,27.68 -26.11,0 -49.71,-10.53 -66.7,-27.68l-310.81 -310.5 0 15.73 310.81 310.5c17.15,16.99 40.59,27.69 66.7,27.69 26.11,0 49.7,-10.54 66.69,-27.69l310.82 -310.5 0 -15.73 -310.82 310.5z"/>
   <path class="fil11" d="M6894.71 1479.81c-104.81,-112.87 -252.87,-176.64 -406.79,-175.9 -150.25,0 -303.45,64.5 -401.66,168.57 -17.59,-2.2 -35.91,-2.93 -54.24,-2.93 -295.38,0 -477.89,248.48 -477.89,477.89 0.74,123.87 49.11,243.35 134.13,333.49 88.69,95.29 213.29,148.79 343.76,148.79l455.9 0c309.31,0 560.7,-253.61 560.7,-565.11 -1.46,-142.92 -55.7,-279.99 -153.92,-384.8l0 0zm-870.75 869.29c-216.95,0 -395.79,-178.84 -395.79,-396.53 0,-216.22 177.37,-395.06 394.33,-396.53 96.75,0 190.56,35.19 263.13,100.42l2.2 1.47 164.18 168.58c12.46,13.19 19.79,30.78 19.79,49.11 0,38.84 -31.52,70.36 -70.37,70.36 -19.05,0 -37.38,-8.06 -50.57,-21.25l-163.45 -167.11c-46.18,-39.59 -104.09,-60.84 -164.91,-60.84 -138.53,0 -252.14,113.6 -252.88,252.14 0,138.52 118.01,255.8 258.01,255.8l32.25 0 0 0.74c46.91,64.5 175.91,142.92 175.91,142.92l-211.83 0 0 0.73zm811.38 -142.92c-88.69,92.36 -211.09,145.12 -339.35,145.12 -121.67,0 -245.54,-54.24 -340.82,-148.78l-216.96 -217.69c-13.19,-13.2 -19.79,-30.79 -20.52,-49.11 0,-38.85 32.25,-70.37 70.37,-70.37l0 0c19.05,0 37.38,7.33 50.57,21.25l215.49 216.23c68.17,68.9 156.12,107.75 241.15,107.75 90.16,0 176.64,-37.39 238.21,-103.35 63.77,-65.24 98.96,-153.19 98.96,-244.08 0,-185.44 -153.19,-338.62 -338.63,-338.62 -71.1,0 -130.46,13.92 -187.63,54.97 -0.74,-0.73 -16.13,-10.99 -33.72,-21.25 -10.26,-6.6 -21.26,-12.47 -32.25,-18.33 -10.27,-5.87 -39.59,-19.79 -57.18,-27.12 -4.4,-1.47 -8.06,-2.93 -12.46,-4.4l0.73 0c89.43,-83.56 200.1,-123.87 322.51,-123.87 263.13,0 480.09,216.96 480.09,480.09 1.47,126.8 -48.38,249.94 -138.53,341.56l0 0z"/>
   <path class="fil12" d="M6876.74 1454.42c-104.81,-112.87 -252.87,-176.64 -406.79,-175.9 -150.25,0 -303.45,64.5 -401.66,168.57 -17.59,-2.2 -35.91,-2.93 -54.24,-2.93 -295.38,0 -477.89,248.48 -477.89,477.89 0.74,123.87 49.11,243.35 134.13,333.49 88.69,95.29 213.29,148.79 343.76,148.79l455.9 0c309.31,0 560.7,-253.61 560.7,-565.11 -1.46,-142.92 -55.7,-279.99 -153.92,-384.8l0 0zm-870.75 869.29c-216.95,0 -395.79,-178.84 -395.79,-396.53 0,-216.22 177.37,-395.06 394.33,-396.53 96.75,0 190.56,35.19 263.13,100.42l2.2 1.47 164.18 168.58c12.46,13.19 19.79,30.78 19.79,49.11 0,38.84 -31.52,70.36 -70.37,70.36 -19.05,0 -37.38,-8.06 -50.57,-21.25l-163.45 -167.11c-46.18,-39.59 -104.09,-60.84 -164.91,-60.84 -138.53,0 -252.14,113.6 -252.88,252.14 0,138.52 118.01,255.8 258.01,255.8l32.25 0 0 0.74c46.91,64.5 175.91,142.92 175.91,142.92l-211.83 0 0 0.73zm811.38 -142.92c-88.69,92.36 -211.09,145.12 -339.35,145.12 -121.67,0 -245.54,-54.24 -340.82,-148.78l-216.96 -217.69c-13.19,-13.2 -19.79,-30.79 -20.52,-49.11 0,-38.85 32.25,-70.37 70.37,-70.37l0 0c19.05,0 37.38,7.33 50.57,21.25l215.49 216.23c68.17,68.9 156.12,107.75 241.15,107.75 90.16,0 176.64,-37.39 238.21,-103.35 63.77,-65.24 98.96,-153.19 98.96,-244.08 0,-185.44 -153.19,-338.62 -338.63,-338.62 -71.1,0 -130.46,13.92 -187.63,54.97 -0.74,-0.73 -16.13,-10.99 -33.72,-21.25 -10.26,-6.6 -21.26,-12.47 -32.25,-18.33 -10.27,-5.87 -39.59,-19.79 -57.18,-27.12 -4.4,-1.47 -8.06,-2.93 -12.46,-4.4l0.73 0c89.43,-83.56 200.1,-123.87 322.51,-123.87 263.13,0 480.09,216.96 480.09,480.09 1.47,126.8 -48.38,249.94 -138.53,341.56l0 0z"/>
   <g>
    <path class="fil13" d="M10363.23 4267.74c-28.48,0 -56.77,-7.47 -81.73,-21.85l-260.13 -154c-38.85,-21.73 -19.89,-29.42 -7.08,-33.85 51.8,-18.14 62.31,-22.23 117.6,-53.63 5.81,-3.32 13.42,-2.15 19.37,1.36l199.84 118.59c7.22,3.9 17.46,3.9 24.15,0l779.19 -449.77c7.21,-4.1 11.9,-12.49 11.9,-21.07l0 -899.15c0,-8.97 -4.69,-16.97 -12.06,-21.46l-778.88 -449.38c-7.21,-4.29 -16.77,-4.29 -23.99,0l-778.73 449.38c-7.54,4.29 -12.34,12.68 -12.34,21.26l0 899.15c0,8.58 4.68,16.78 12.09,20.87l213.38 123.27c115.85,57.93 186.65,-10.34 186.65,-78.99l0 -887.45c0,-12.68 9.95,-22.44 22.63,-22.44l98.7 0c12.28,0 22.43,9.75 22.43,22.43l0 887.84c0,154.47 -84.26,243.22 -230.74,243.22 -45.06,0 -80.56,0 -179.63,-48.76l-204.41 -117.81c-50.52,-29.26 -81.72,-83.87 -81.72,-142.18l0 -899.15c0,-58.51 31.2,-113.12 81.72,-141.99l779.98 -449.96c49.34,-27.9 114.88,-27.9 163.83,0l779 450.16c50.32,29.06 81.72,83.48 81.72,141.99l0 899.15c0,58.32 -31.4,112.73 -81.72,141.98l-779 449.97c-24.97,14.44 -53.25,21.85 -82.12,21.85l0.09 0.41zm0 0l0 0 0 0z"/>
   </g>
   <path class="fil14" d="M10627.95 2817.09c12.52,-7.72 28.21,-7.72 40.89,0l339.25 204.79c12.68,7.69 20.46,21.83 20.46,37.12l0 410.02c0,15.28 -7.76,29.43 -20.46,37.12l-339.25 204.78c-12.68,7.73 -28.37,7.73 -40.89,0l-339.04 -204.78c-12.94,-7.69 -20.86,-21.84 -20.86,-37.12l0 -410.02c0,-15.29 7.51,-29.43 20.45,-37.12l339.45 -204.79zm0 0z"/>
   <g>
    <path class="fil15" d="M10335.72 4251.4c-28.48,0 -56.77,-7.47 -81.73,-21.85l-260.13 -154c-38.85,-21.73 -19.89,-29.42 -7.08,-33.85 51.8,-18.14 62.31,-22.23 117.6,-53.63 5.81,-3.32 13.42,-2.15 19.37,1.36l199.84 118.59c7.22,3.9 17.46,3.9 24.15,0l779.19 -449.77c7.21,-4.1 11.9,-12.49 11.9,-21.07l0 -899.15c0,-8.97 -4.69,-16.97 -12.06,-21.46l-778.88 -449.38c-7.21,-4.29 -16.77,-4.29 -23.99,0l-778.73 449.38c-7.54,4.29 -12.34,12.68 -12.34,21.26l0 899.15c0,8.58 4.68,16.78 12.09,20.87l213.38 123.27c115.85,57.93 186.65,-10.34 186.65,-78.99l0 -887.45c0,-12.68 9.95,-22.44 22.63,-22.44l98.7 0c12.28,0 22.43,9.75 22.43,22.43l0 887.84c0,154.47 -84.26,243.22 -230.74,243.22 -45.06,0 -80.56,0 -179.63,-48.76l-204.41 -117.81c-50.52,-29.26 -81.72,-83.87 -81.72,-142.18l0 -899.15c0,-58.51 31.2,-113.12 81.72,-141.99l779.98 -449.96c49.34,-27.9 114.88,-27.9 163.83,0l779 450.16c50.32,29.06 81.72,83.48 81.72,141.99l0 899.15c0,58.32 -31.4,112.73 -81.72,141.98l-779 449.97c-24.97,14.44 -53.25,21.85 -82.12,21.85l0.09 0.41zm0 0l0 0 0 0z"/>
   </g>
   <path class="fil16" d="M10600.44 2800.75c12.52,-7.72 28.21,-7.72 40.89,0l339.25 204.79c12.68,7.69 20.46,21.83 20.46,37.12l0 410.02c0,15.28 -7.76,29.43 -20.46,37.12l-339.25 204.78c-12.68,7.73 -28.37,7.73 -40.89,0l-339.04 -204.78c-12.94,-7.69 -20.86,-21.84 -20.86,-37.12l0 -410.02c0,-15.29 7.51,-29.43 20.45,-37.12l339.45 -204.79zm0 0z"/>
   <rect class="fil17" x="4309.41" y="4863.7" width="423.93" height="45.99"/>
   <path class="fil18" d="M4693.65 631.04l1926.06 0c381.03,0 688.45,107.39 921.25,322.17 232.8,214.79 350.19,516.08 350.19,904.88 0,334.1 -104.47,624.45 -312.39,872.05 -207.94,247.6 -527.29,371.89 -959.06,371.89l-1346.06 0 0 1808.75 -580 0 0 -4279.74zm2611.52 1230.02c0,-315.22 -116.39,-529.01 -350.19,-641.36 -128.33,-59.67 -304.43,-90.49 -527.27,-90.49l-1154.06 0 0 1482.59 1154.06 0c260.65,0 471.55,-54.69 633.72,-166.06 162.16,-110.37 243.74,-305.27 243.74,-584.68z"/>
   <rect class="fil19" x="7855.53" y="1831.13" width="479.59" height="45.99"/>
   <path class="fil1" d="M12428.73 1921.54c0,-80.61 -42.5,-154.63 -112.07,-194.72l-1855.67 -1067.52c-31.33,-18.4 -66.42,-28.04 -102.01,-29.36l-19.18 0.02c-35.59,1.31 -70.67,10.95 -102.53,29.35l-1855.59 1067.51c-69.14,40.31 -112.24,114.32 -112.24,194.94l4.08 2875.35c0,39.86 20.59,77.1 55.64,96.81 34.17,21.02 77.11,21.02 111.28,0l329.24 -237.53c69.66,-41.44 112.15,-114.68 112.15,-194.49l0 -2246.77c0,-80.17 42.5,-154.19 111.93,-194.05l1243.59 -669.44c34.87,-20.15 73.16,-30.13 112.15,-30.13 38.38,0 77.55,9.89 111.46,30.1l1252.86 669.28c69.49,39.86 112.15,113.89 112.15,194.05l-4.81 2246.74c0,79.73 43.08,153.31 112.38,194.49l323.85 237.09c34.62,20.59 77.69,20.59 112.16,0 34,-19.7 55.55,-56.95 55.55,-96.81l3.59 -2874.91z"/>
   <path class="fil20" d="M14721.02 629.94l-1910.41 4279.75 0 0 712.31 0 0 0 384.04 -957.62 1621.56 0 384.05 957.62 0 0 712.29 0 0 0 -1903.83 -4279.75 0 0 0 0 0 0 0 0zm558.01 2731.83l-1116.04 0 558.02 -1341.32 558.01 1341.32z"/>
   <polygon class="fil21" points="14721.02,629.94 14718.93,634.63 14718.93,2025.48 14721.02,2020.45 15279.04,3361.77 14718.93,3361.77 14718.93,3952.08 15528.51,3952.08 15912.57,4909.69 16624.85,4909.69 "/>
   <rect class="fil22" x="16559.5" y="4863.7" width="1059.84" height="45.99" rx="96.35" ry="22.99"/>
   <rect class="fil23" x="17349.46" y="853.06" width="476.15" height="3833.52" rx="238.08" ry="311.67"/>
   <circle class="fil23" cx="17587.54" cy="1255.7" r="625.76"/>
   <circle class="fil23" cx="17587.54" cy="4283.93" r="625.76"/>
   <path class="fil23" d="M18947.3 2529.74l-0.01 0c-96.46,103.5 -260.05,109.24 -363.53,12.78l-2324 -2166.21 350.77 -376.31 2323.99 2166.2c103.5,96.47 109.24,260.05 12.78,363.54z"/>
   <circle class="fil23" transform="matrix(-3.27731E-001 0.351605 -3.51605E-001 -3.27731E-001 19034.8 2605.68)" r="1301.87"/>
   <rect class="fil23" x="17619.37" y="4863.7" width="4239.37" height="45.99" rx="385.4" ry="22.99"/>
   <polygon class="fil24" points="23529.52,629.95 23529.52,1140.06 22086.97,1140.06 22086.97,4909.69 21498,4909.69 21498,1140.06 20055.45,1140.06 20055.45,629.95 "/>
  </g>
 </g>
</svg>
