<?xml version="1.0" standalone="no"?>
<!DOCTYPE svg PUBLIC "-//W3C//DTD SVG 1.0//EN" "http://www.w3.org/TR/2001/REC-SVG-20010904/DTD/svg10.dtd">
<svg xmlns="http://www.w3.org/2000/svg" xmlns:xlink="http://www.w3.org/1999/xlink" id="body_1" width="113" height="84">

<defs>
    <linearGradient transform="matrix(1 0 0 1 0 0)"  id="1" x1="29.71" y1="237.88" x2="162.69" y2="180.54">
        <stop stop-color="#F04E27" offset="0%"/>
        <stop stop-color="#79004F" offset="100%"/>
    </linearGradient>
    <linearGradient transform="matrix(1 0 0 1 0 0)"  id="231" x1="25" y1="205.12" x2="172.12" y2="141.69">
        <stop stop-color="#F04E27" offset="0%"/>
        <stop stop-color="#79004F" offset="100%"/>
    </linearGradient>
    <linearGradient transform="matrix(1 0 0 1 0 0)"  id="460" x1="88.61" y1="182.4" x2="113.14" y2="171.82">
        <stop stop-color="#F04E27" offset="0%"/>
        <stop stop-color="#79004F" offset="100%"/>
    </linearGradient>
    <linearGradient transform="matrix(1 0 0 1 0 0)"  id="691" x1="86.88" y1="178.39" x2="111.41" y2="167.81">
        <stop stop-color="#FB3D25" offset="0%"/>
        <stop stop-color="#4B269F" offset="100%"/>
    </linearGradient>
    <linearGradient transform="matrix(1 0 0 1 0 0)"  id="923" x1="99.08" y1="164.48" x2="99.08" y2="196.07">
        <stop stop-color="#F04E27" offset="0%"/>
        <stop stop-color="#79004F" offset="100%"/>
    </linearGradient>
    <linearGradient transform="matrix(1 0 0 1 0 0)"  id="1154" x1="91.87" y1="166.29" x2="108.47" y2="168.35">
        <stop stop-color="#FBFF25" offset="0%"/>
        <stop stop-color="#EC1D68" offset="100%"/>
    </linearGradient>
    <linearGradient transform="matrix(1 0 0 1 0 0)"  id="1387" x1="97.33" y1="170.33" x2="94.61" y2="185.32">
        <stop stop-color="#FBFF25" offset="0%"/>
        <stop stop-color="#EC1D68" offset="100%"/>
    </linearGradient>
</defs>

<g transform="matrix(0.3826705 0 0 0.3826705 14.488518 -0)">
	<g>
		<g>
			<g>
				<g>
                    <path d="M219.17 136.17C 218.81999 138.9 218.22 141.55 217.38 144C 211.48001 161.33 183.40001 182.13 162.95001 183.52L162.95001 183.52L163.98001 171.39C 163.98001 171.39 169.98001 168.31999 177.41 163.48C 189.92 155.33 206.46 142.18 205.39 130.15C 205.34 129.79999 205.3 129.45 205.24 129.09999C 203.83 121.19999 201.41 117.32999 198.63 116.119995C 193.76001 114.02 187.75 119.99 183.84001 126.78999C 181.59001 130.70999 176.36002 131.65 172.90001 128.75C 171.23001 127.35 170.3 125.29 170.3 123.19C 170.3 122.44 170.41 121.71 170.65001 120.98C 170.70001 120.83 170.75002 120.69 170.81001 120.54C 173.56001 113.66 180.34001 102.130005 195.15001 101.06C 195.39001 101.03 195.64001 101.009995 195.89001 101C 214.63002 100.12 221.38002 119.65 219.17001 136.16L219.17001 136.16L219.17 136.17z" stroke="none" fill="#FD9D3C" fill-rule="nonzero" />
                    <path d="M205.39 130.15C 205.34 129.79999 205.3 129.45 205.24 129.09999C 203.83 121.19999 201.41 117.32999 198.63 116.119995C 193.76001 114.02 187.75 119.99 183.84001 126.78999C 181.59001 130.70999 176.36002 131.65 172.90001 128.75C 171.23001 127.35 170.3 125.29 170.3 123.19C 170.3 122.44 170.41 121.71 170.65001 120.98C 171.78001 123.41 174.27 126.19 179.44 123.23C 187.61 118.560005 186.45 111.54 196.37 112.72C 203.15 113.51 207.89 121.240005 205.39 130.15z" stroke="none" fill="#FF7136" fill-rule="nonzero" />
                    <path d="M219.17 136.17C 218.81999 138.9 218.22 141.55 217.38 144C 211.48001 161.33 183.40001 182.13 162.95001 183.52L162.95001 183.52L163.98001 171.39C 163.98001 171.39 169.98001 168.31999 177.41 163.48C 179.63 165.83 183.78 167.56999 191.51001 165.75C 207.97 161.9 212.89001 149.51 216.74 140.1C 217.40001 138.49 218.23001 137.19 219.16 136.16L219.16 136.16L219.17 136.17z" stroke="none" fill="#FF7136" fill-rule="nonzero" />
                    <path d="M198.78 113.32C 198.77 114.2 198.72 115.14 198.63 116.12C 193.76001 114.020004 187.75 119.990005 183.84001 126.79C 181.59001 130.71 176.36002 131.65 172.90001 128.75C 171.23001 127.35 170.3 125.29 170.3 123.19C 170.3 122.79 170.33 122.4 170.40001 122.01C 170.41 121.91 170.43001 121.82 170.46 121.72C 170.48001 121.57 170.52 121.44 170.56001 121.3C 170.58002 121.200005 170.62001 121.100006 170.65001 120.990005C 170.70001 120.83 170.75002 120.68001 170.81001 120.54001C 173.56001 113.66001 180.34001 102.130005 195.15001 101.06001C 196.78001 103.180016 198.83 107.09001 198.78001 113.320015L198.78001 113.320015L198.78 113.32z" stroke="none" fill="#FFD09E" fill-rule="nonzero" />
                    <path d="M198.78 113.32C 198.77 114.2 198.72 115.14 198.63 116.12C 193.76001 114.020004 187.75 119.990005 183.84001 126.79C 181.59001 130.71 176.36002 131.65 172.90001 128.75C 171.23001 127.35 170.3 125.29 170.3 123.19C 170.3 122.79 170.33 122.4 170.40001 122.01C 170.41 121.91 170.43001 121.82 170.46 121.72C 170.48001 121.57 170.52 121.44 170.56001 121.3C 170.58002 121.200005 170.62001 121.100006 170.65001 120.990005C 171.79001 123.420006 174.28001 126.18001 179.44 123.23C 187.61 118.560005 186.45 111.54 196.37 112.72C 197.20999 112.82 198.01 113.03 198.78 113.32z" stroke="none" fill="#E6B683" fill-rule="nonzero" />
					<g>
						<g>
                            <path d="M128.94 16.6C 128.94 16.6 154.8 1.6 170.19 0C 170.19 0 175.12 27.51 164.86 52.53C 164.86 52.53 134.71 37.129997 128.94 16.61L128.94 16.61L128.94 16.6z" stroke="none" fill="#FD9D3C" fill-rule="nonzero" />
                            <path d="M167.86 4.39C 167.86 4.39 167.86 4.91 167.85 5.83C 167.8 9.75 167.54001 20.95 165.99 30.92C 165.02 37.22 163.52 43.03 161.25 46.18C 161.25 46.18 144.78 37.33 139.85 26.14C 139.85 26.14 159.01001 9.219999 167.86 4.3999996L167.86 4.3999996L167.86 4.39z" stroke="none" fill="#FF7136" fill-rule="nonzero" />
                            <path d="M155.93 22.6C 156.2 26.74 161.26999 29.37 165.98999 30.92C 165.01999 37.22 163.51999 43.03 161.24998 46.18C 161.24998 46.18 144.77998 37.33 139.84999 26.14C 139.84999 26.14 159.01 9.219999 167.85999 4.3999996C 167.85999 4.3999996 167.85999 4.9199996 167.84999 5.8399997C 165.12999 7.95 155.49998 15.889999 155.93 22.61L155.93 22.61L155.93 22.6z" stroke="none" fill="#CF5C2C" fill-rule="nonzero" />
						</g>
						<g>
                            <path d="M60.79 16.6C 60.79 16.6 34.93 1.6 19.53 0C 19.53 0 14.6 27.51 24.86 52.53C 24.86 52.53 55.010002 37.129997 60.78 16.61L60.78 16.61L60.79 16.6z" stroke="none" fill="#FD9D3C" fill-rule="nonzero" />
                            <path d="M21.87 4.39C 21.87 4.39 21.87 4.91 21.880001 5.83C 21.93 9.75 22.19 20.95 23.740002 30.92C 24.710001 37.22 26.210001 43.03 28.480001 46.18C 28.480001 46.18 44.95 37.33 49.88 26.14C 49.88 26.14 30.720001 9.219999 21.87 4.3999996L21.87 4.3999996L21.87 4.39z" stroke="none" fill="#FF7136" fill-rule="nonzero" />
                            <path d="M33.8 22.6C 33.53 26.74 28.46 29.37 23.739998 30.92C 24.709997 37.22 26.209997 43.03 28.479998 46.18C 28.479998 46.18 44.949997 37.33 49.879997 26.14C 49.879997 26.14 30.719997 9.219999 21.869997 4.3999996C 21.869997 4.3999996 21.869997 4.9199996 21.879997 5.8399997C 24.599997 7.95 34.229996 15.889999 33.799995 22.61L33.799995 22.61L33.8 22.6z" stroke="none" fill="#CF5C2C" fill-rule="nonzero" />
						</g>
					</g>
					<g>
                        <path d="M172.42 197.03L155.06999 196.34L154.64 196.31999C 154.64 196.31999 154.63 196.15 154.61 195.84C 154.38 192.86 153.2 176.92 152.87 174.98999C 152.51999 172.84999 161.4 140.15 161.4 140.15C 161.4 140.15 164.14 144.25 167.07999 150.95999C 169.65 156.81 172.37999 164.65 173.55998 173.48999C 174.55998 180.84 174.49998 188.87 172.41998 197.01999L172.41998 197.01999L172.42 197.03z" stroke="none" fill="#FD9D3C" fill-rule="nonzero" />
                        <path d="M172.42 197.03L155.06999 196.34C 154.90999 196.18 154.76 196.01 154.60999 195.84C 154.37999 192.86 153.19998 176.92 152.86998 174.98999C 152.51997 172.84999 161.39998 140.15 161.39998 140.15C 161.39998 140.15 164.13998 144.25 167.07997 150.95999C 166.19997 156.98 165.02997 170.37999 171.52997 172.81C 172.22997 173.06999 172.90997 173.3 173.56996 173.48999C 174.56996 180.84 174.50996 188.87 172.42996 197.01999L172.42996 197.01999L172.42 197.03z" stroke="none" fill="#FF7136" fill-rule="nonzero" />
                        <path d="M28.32 140.15C 28.32 140.15 9.84 167.87999 17.3 197.01999L17.3 197.01999L35.07 196.30998C 35.07 196.30998 36.489998 177.10999 36.85 174.97998C 37.21 172.84998 28.32 140.13998 28.32 140.13998L28.32 140.13998L28.32 140.15z" stroke="none" fill="#FD9D3C" fill-rule="nonzero" />
                        <path d="M17.3 197.03L34.65 196.34C 34.81 196.18 34.960003 196.01 35.11 195.84C 35.34 192.86 36.52 176.92 36.850002 174.98999C 37.2 172.84999 28.320004 140.15 28.320004 140.15C 28.320004 140.15 25.580004 144.25 22.640003 150.95999C 23.520002 156.98 24.690002 170.37999 18.190002 172.81C 17.490002 173.06999 16.810003 173.3 16.150002 173.48999C 15.150002 180.84 15.210002 188.87 17.29 197.01999L17.29 197.01999L17.3 197.03z" stroke="none" fill="#FF7136" fill-rule="nonzero" />
					</g>
                    <path d="M174.18 103.09L179.65999 104.7L171.59999 109.53999C 171.59999 109.53999 168.37 122.189995 157.16998 134.84999C 156.20998 135.93999 155.18999 137.01999 154.09998 138.09999C 142.58998 149.57999 124.04997 160.15999 94.88998 160.18L94.88998 160.18L94.82998 160.18C 73.40998 160.17 57.72998 154.45 46.34998 146.85999C 42.22998 144.12999 38.679977 141.13998 35.61998 138.09999C 21.929981 124.45999 18.11998 109.54999 18.11998 109.54999L18.11998 109.54999L10.059979 104.70999L15.53998 103.09999C 12.63998 101.47999 -2.002716E-05 92.87999 -2.002716E-05 92.87999L-2.002716E-05 92.87999L16.77998 86.63999C 16.77998 86.63999 16.20998 84.05999 16.59998 79.02999C 17.149979 71.77999 19.69998 59.41999 28.76998 42.32999C 40.43 20.32 63.3 12.27 78.84 9.31C 87.829994 7.6000004 94.36 7.6000004 94.869995 7.6000004C 95.37999 7.6000004 101.909996 7.6000004 110.899994 9.320001C 113.92999 9.900001 117.24999 10.670001 120.70999 11.700001C 120.70999 11.710001 120.71999 11.710001 120.71999 11.710001C 134.95 15.950001 151.56999 24.630001 160.95 42.32C 170.03 59.41 172.56 71.78 173.12 79.03C 173.5 84.06 172.94 86.619995 172.94 86.619995L172.94 86.619995L189.72 92.85999C 189.72 92.85999 177.08 101.45999 174.18001 103.079994L174.18001 103.079994L174.18 103.09z" stroke="none" fill="#FD9D3C" fill-rule="nonzero" />
                    <path d="M174.18 103.09L179.65999 104.7L171.59999 109.53999C 171.59999 109.53999 168.37 122.189995 157.16998 134.84999C 156.20998 135.93999 155.18999 137.01999 154.09998 138.09999C 142.58998 149.57999 124.04997 160.15999 94.88998 160.18L94.88998 160.18L94.82998 160.18C 73.40998 160.17 57.72998 154.45 46.34998 146.85999C 44.039978 140.90999 42.21998 136.18 42.21998 136.18C 42.21998 136.18 139.03998 133.53 150.80997 87.96999C 159.79997 53.199993 133.61996 23.73999 120.71997 11.719994C 134.94997 15.959993 151.56998 24.639994 160.94997 42.329994C 170.02997 59.419994 172.55997 71.78999 173.11996 79.03999C 173.49997 84.06999 172.93997 86.62999 172.93997 86.62999L172.93997 86.62999L189.71997 92.86999C 189.71997 92.86999 177.07997 101.469986 174.17998 103.08999L174.17998 103.08999L174.18 103.09z" stroke="none" fill="#FF7136" fill-rule="nonzero" />
                    <path d="M154.1 138.1C 142.59001 149.58 124.05 160.16 94.89001 160.18001L94.89001 160.18001L94.83001 160.18001C 93.920006 160.18001 93.02001 160.17001 92.13001 160.15001C 91.280014 160.13 90.430016 160.1 89.59001 160.06001L89.59001 160.06001L89.44001 160.06001C 88.64001 160.01001 87.84001 159.97002 87.06001 159.92001C 86.94001 159.91002 86.81001 159.90001 86.70001 159.89001C 85.92001 159.83002 85.15001 159.78001 84.38001 159.70001C 83.55001 159.62001 82.73001 159.54001 81.92001 159.44002C 81.210014 159.36002 80.51001 159.27002 79.81001 159.17001C 79.710014 159.16002 79.62001 159.15001 79.52001 159.12001C 78.81001 159.02 78.12001 158.92001 77.430016 158.79001C 77.290016 158.78001 77.16002 158.76001 77.02001 158.72C 76.30001 158.61 75.59001 158.47 74.890015 158.34C 74.09001 158.18 73.31001 158.01999 72.52001 157.84C 71.83001 157.69 71.15001 157.53 70.48001 157.36C 69.77001 157.18001 69.05001 157 68.36001 156.81C 68.350006 156.81 68.34001 156.81 68.310005 156.8C 67.64001 156.62001 66.990005 156.43001 66.33 156.22C 63.5 155.36 60.82 154.39 58.29 153.31C 57.41 152.93 56.54 152.54 55.690002 152.14C 55.29 151.95 54.910004 151.77 54.520004 151.56999C 54.420006 151.51999 54.320004 151.48 54.230003 151.42C 53.880005 151.25 53.530003 151.06999 53.190002 150.89C 52.780003 150.69 52.38 150.47 51.980003 150.26C 51.58 150.04 51.190002 149.81999 50.790005 149.59999C 50.410004 149.37 50.020004 149.15999 49.640003 148.93C 48.880005 148.48 48.130005 148.01999 47.4 147.54999C 47.04 147.31999 46.68 147.08998 46.32 146.84999C 42.2 144.12 38.65 141.12999 35.59 138.09C 39.28 111.7 64.4 91.28 94.84 91.28C 111.85 91.28 127.2 97.65 138.06 107.88C 146.65 115.96 152.44 126.439995 154.06999 138.09L154.06999 138.09L154.1 138.1z" stroke="none" fill="#FFD09E" fill-rule="nonzero" />
					<g>
                        <path d="M170.05 174.15C 168.17 172.86 160.46 169.07999 154.92 177.5C 149.38 185.92 154.84999 193.23 151.78 200.91C 148.70999 208.58 147.68 217.23001 156.48 218.53C 165.28 219.83 174.9 214.26 175.56999 196.16C 176.23999 178.07 171.04 174.83 170.04999 174.15001L170.04999 174.15001L170.05 174.15z" stroke="none" fill="#FD9D3C" fill-rule="nonzero" />
                        <path d="M19.68 174.15C 21.56 172.86 29.27 169.07999 34.81 177.5C 40.350002 185.92 34.88 193.23 37.95 200.91C 41.02 208.58 42.05 217.23001 33.25 218.53C 24.45 219.83 14.83 214.26 14.16 196.16C 13.49 178.07 18.69 174.83 19.68 174.15001L19.68 174.15001L19.68 174.15z" stroke="none" fill="#FD9D3C" fill-rule="nonzero" />
					</g>
					<g>
                        <path d="M173.11 79.04C 166.53 81.22 159.26 82.770004 151.88 82.83C 141.51001 82.94 130.91 80.130005 121.65001 72.07C 98.71001 52.129997 105.48001 23.489998 110.89001 9.329998C 113.93001 9.909998 117.25001 10.679998 120.71001 11.719998C 121.600006 11.979999 122.50001 12.259998 123.40001 12.569999C 123.84001 12.719998 124.29001 12.879999 124.75001 13.019999C 124.75001 13.029999 124.76001 13.029999 124.78001 13.029999C 125.23 13.199999 125.69001 13.359999 126.14001 13.529999C 126.590004 13.699999 127.060005 13.869999 127.520004 14.049999C 127.97 14.23 128.44 14.409999 128.90001 14.599999C 129.84001 14.98 130.78001 15.389999 131.72002 15.82C 132.17001 16.02 132.63002 16.24 133.07002 16.449999C 133.53003 16.669998 134.00002 16.89 134.46002 17.13C 135.52002 17.66 136.59003 18.24 137.65002 18.849998C 138.13002 19.109999 138.60002 19.39 139.06003 19.679998C 139.51003 19.949999 139.97003 20.22 140.42003 20.519999C 140.60002 20.63 140.78003 20.749998 140.96002 20.859999C 141.41002 21.15 141.85002 21.449999 142.31003 21.749998C 143.50003 22.559998 144.66003 23.409998 145.82002 24.329998C 146.23003 24.649998 146.63002 24.979998 147.03003 25.299997C 147.19003 25.439997 147.35004 25.569998 147.51003 25.709997C 147.96002 26.089996 148.42003 26.479998 148.86003 26.889997C 149.36003 27.329998 149.84003 27.779997 150.32004 28.249998C 150.34004 28.269999 150.37004 28.299997 150.39005 28.319998C 150.90004 28.809998 151.40004 29.299997 151.88005 29.809998C 152.29005 30.229998 152.69005 30.669998 153.09006 31.109997C 153.28006 31.309998 153.46005 31.519997 153.63005 31.719997C 154.01006 32.149998 154.39005 32.589996 154.75005 33.039997C 155.56004 34.019997 156.35005 35.039997 157.10005 36.109997C 157.29005 36.369995 157.47005 36.639996 157.65005 36.909996C 157.91005 37.269997 158.15005 37.629997 158.39006 38.009995C 158.57005 38.269993 158.74007 38.529995 158.90005 38.799995C 159.23006 39.319996 159.56006 39.849995 159.87006 40.409996C 160.23006 41.029995 160.59006 41.679996 160.93005 42.319996C 170.01006 59.409996 172.54005 71.78 173.10005 79.03L173.10005 79.03L173.11 79.04z" stroke="none" fill="#FF7136" fill-rule="nonzero" />
                        <path d="M151.88 82.83C 157.23001 50.31 132.97 23.130001 120.71001 11.709999C 121.600006 11.969999 122.50001 12.249999 123.40001 12.559999C 123.84001 12.709999 124.29001 12.87 124.75001 13.009999C 124.75001 13.0199995 124.76001 13.0199995 124.78001 13.0199995C 125.23 13.19 125.69001 13.349999 126.14001 13.5199995C 126.590004 13.69 127.060005 13.86 127.520004 14.039999C 127.97 14.219999 128.44 14.399999 128.90001 14.589999C 129.84001 14.969999 130.78001 15.379999 131.72002 15.809999C 132.17001 16.01 132.63002 16.23 133.07002 16.439999C 133.53003 16.659998 134.00002 16.88 134.46002 17.119999C 135.52002 17.65 136.59003 18.23 137.65002 18.839998C 138.13002 19.099998 138.60002 19.38 139.06003 19.669998C 139.51003 19.939999 139.97003 20.21 140.42003 20.509998C 140.60002 20.619999 140.78003 20.739998 140.96002 20.849998C 141.41002 21.14 141.85002 21.439999 142.31003 21.739998C 143.50003 22.549997 144.66003 23.399998 145.82002 24.319998C 146.23003 24.639997 146.63002 24.969997 147.03003 25.289997C 147.19003 25.429996 147.35004 25.559998 147.51003 25.699997C 147.96002 26.079996 148.42003 26.469997 148.86003 26.879997C 149.36003 27.319998 149.84003 27.769997 150.32004 28.239998C 150.34004 28.259998 150.37004 28.289997 150.39005 28.309998C 150.90004 28.799997 151.40004 29.289997 151.88005 29.799997C 152.29005 30.219997 152.69005 30.659998 153.09006 31.099997C 153.28006 31.299997 153.46005 31.509996 153.63005 31.709997C 154.01006 32.139996 154.39005 32.579998 154.75005 33.03C 155.56004 34.01 156.35005 35.03 157.10005 36.1C 157.29005 36.359997 157.47005 36.629997 157.65005 36.899998C 157.91005 37.26 158.15005 37.62 158.39006 37.999996C 158.57005 38.259995 158.74007 38.519997 158.90005 38.789997C 159.23006 39.309998 159.56006 39.839996 159.87006 40.399998C 160.23006 41.019997 160.59006 41.67 160.93005 42.309998C 170.01006 59.399998 172.54005 71.77 173.10005 79.02C 166.52005 81.2 159.25005 82.75 151.87006 82.81L151.87006 82.81L151.88 82.83z" stroke="none" fill="#CF5C2C" fill-rule="nonzero" />
                        <path d="M68.08 72.07C 52.22 85.87 32.43 84.29 16.61 79.03C 17.16 71.78 19.710001 59.42 28.78 42.329998C 40.43 20.32 63.3 12.27 78.84 9.31C 84.25 23.48 91.02 52.120003 68.079994 72.07L68.079994 72.07L68.08 72.07z" stroke="none" fill="#FF7136" fill-rule="nonzero" />
					</g>
					<g>
						<g>
                            <path d="M119.45 71.08C 119.45 65.800156 123.00038 61.52 127.38 61.52C 131.75961 61.52 135.31 65.800156 135.31 71.08C 135.31 76.35985 131.75961 80.64 127.38 80.64C 123.00038 80.64 119.45 76.35985 119.45 71.08" stroke="none" fill="#38090E" fill-rule="nonzero" />
                            <path d="M128.94 67.86C 128.94 68.50618 128.71155 69.057724 128.25462 69.51463C 127.797714 69.97154 127.24617 70.2 126.6 70.2C 125.95383 70.2 125.40228 69.97154 124.945366 69.51463C 124.488464 69.057724 124.26001 68.50618 124.26 67.86C 124.26001 67.21383 124.488464 66.662285 124.945366 66.20537C 125.40228 65.74846 125.95383 65.520004 126.6 65.520004C 127.24617 65.520004 127.797714 65.74846 128.25462 66.20537C 128.71155 66.662285 128.94 67.21383 128.94 67.86C 128.94 67.88724 128.93953 67.91446 128.93857 67.941666" stroke="none" fill="#FFFFFF" fill-rule="nonzero" />
                            <path d="M130.9 75.97C 130.9 76.24891 130.80139 76.48697 130.60417 76.68418C 130.40697 76.88139 130.16891 76.98 129.89 76.98C 129.61111 76.98 129.37305 76.88139 129.17583 76.68418C 128.9786 76.48697 128.88 76.24891 128.88 75.97C 128.88 75.6911 128.9786 75.45303 129.17583 75.25582C 129.37305 75.05861 129.61111 74.96001 129.89 74.96C 130.16891 74.96001 130.40697 75.05861 130.60417 75.25582C 130.80139 75.45303 130.9 75.6911 130.9 75.97C 130.9 75.98176 130.8998 75.99351 130.89938 76.00525" stroke="none" fill="#FFFFFF" fill-rule="nonzero" />
						</g>
                        <path d="M156.03 64.56C 155.63 72.75 152.33 90.11 131.6 90.53C 131.14 90.53 130.68001 90.54 130.23001 90.53C 127.67001 90.52 125.34001 90.28 123.22001 89.869995C 122.14001 89.67 121.11001 89.409996 120.13001 89.119995C 114.08001 87.28999 110.01001 83.85999 107.280014 79.89C 100.390015 69.92 102.000015 56.54 102.000015 56.54C 102.000015 56.54 115.780014 50.75 133.85002 53.170002C 139.29002 53.9 145.12003 55.370003 151.08002 57.980003C 151.96002 58.360004 152.83002 58.770004 153.71002 59.200005C 154.48003 59.580006 155.24002 59.970005 156.01003 60.390003C 156.01003 60.390003 156.16002 62.040005 156.04002 64.58L156.04002 64.58L156.03 64.56z" stroke="#38090E" stroke-width="3.45" fill="none" />
						<g>
                            <path d="M54.42 71.08C 54.42 65.800156 57.97038 61.52 62.35 61.52C 66.729614 61.52 70.28 65.800156 70.28 71.08C 70.28 76.35985 66.729614 80.64 62.35 80.64C 57.97038 80.64 54.42 76.35985 54.42 71.08" stroke="none" fill="#38090E" fill-rule="nonzero" />
                            <path d="M60.79 67.86C 60.79 69.15 61.84 70.2 63.13 70.2C 64.42 70.2 65.47 69.149994 65.47 67.86C 65.47 66.57001 64.42 65.520004 63.13 65.520004C 61.840004 65.520004 60.79 66.57001 60.79 67.86z" stroke="none" fill="#FFFFFF" fill-rule="nonzero" />
                            <path d="M58.83 75.97C 58.83 76.53 59.280003 76.98 59.84 76.98C 60.399998 76.98 60.85 76.53001 60.85 75.97C 60.85 75.409996 60.399998 74.96 59.84 74.96C 59.280003 74.96 58.83 75.409996 58.83 75.97z" stroke="none" fill="#FFFFFF" fill-rule="nonzero" />
						</g>
                        <path d="M58.12 90.53C 57.37 90.52 56.64 90.47 55.94 90.409996C 53.559998 90.21999 51.43 89.78 49.519997 89.149994C 48.549995 88.829994 47.629997 88.45999 46.779995 88.03999C 41.319996 85.409996 38.109993 81.02 36.229996 76.48999C 32.949997 68.61999 33.719997 60.359993 33.719997 60.359993C 42.869995 55.409992 51.879997 53.319992 59.839996 52.739994C 68.149994 52.129993 75.31999 53.149994 80.31 54.289993C 81.45 54.54999 82.479996 54.809994 83.38 55.069992C 86.17 55.84999 87.75 56.50999 87.75 56.50999C 87.75 56.50999 87.83 57.14999 87.87 58.25999C 88.170006 65.30999 87.29 91.09999 58.130005 90.49999L58.130005 90.49999L58.12 90.53z" stroke="#38090E" stroke-width="3.45" fill="none" />
                        <path d="M87.77 62.88L101.83 62.88" stroke="#38090E" stroke-width="3.45" fill="none" />
					</g>
					<g>
                        <path d="M145.67 95.97C 145.67 99.5 140.04 102.36 133.1 102.36C 126.16002 102.36 120.53001 99.5 120.53001 95.97C 120.53001 92.44 126.16 89.58 133.1 89.58C 140.04001 89.58 145.67001 92.44 145.67001 95.97L145.67001 95.97L145.67 95.97z" stroke="none" fill="#F25757" fill-rule="nonzero" />
                        <path d="M69.2 95.97C 69.2 99.5 63.569996 102.36 56.629997 102.36C 49.69 102.36 44.059998 99.5 44.059998 95.97C 44.059998 92.44 49.69 89.58 56.629997 89.58C 63.569996 89.58 69.2 92.44 69.2 95.97z" stroke="none" fill="#F25757" fill-rule="nonzero" />
					</g>
					<g>
                        <path d="M113.19 113.65C 113.19 114.35 113.14 115.05 113.07 115.74C 112.87 117.579994 112.39 119.34 111.67 120.97C 108.85 127.44 102.39 131.97 94.869995 131.97C 89.899994 131.97 85.409996 130 82.09999 126.79C 79.13999 123.93 77.149994 120.07 76.66999 115.74C 76.58999 115.049995 76.54999 114.35 76.54999 113.65C 76.54999 113 76.57999 112.380005 76.639984 111.75C 78.34998 112.97 80.43999 113.69 82.68999 113.69C 88.459984 113.69 93.14999 108.990005 93.14999 103.22C 93.14999 102.28 93.91998 101.51 94.86999 101.51C 95.81999 101.51 96.57999 102.28 96.57999 103.22C 96.57999 108.99 101.27998 113.69 107.04999 113.69C 109.29999 113.69 111.39999 112.98 113.109985 111.75C 113.16998 112.38 113.19998 113.01 113.19998 113.65L113.19998 113.65L113.19 113.65z" stroke="none" fill="#38090E" fill-rule="nonzero" />
                        <path d="M111.66 120.97C 108.840004 127.44 102.380005 131.97 94.86 131.97C 89.89 131.97 85.4 130 82.09 126.79C 85.46 123.450005 91.99 118.78 102.03 118.9C 105.83 118.950005 109.01 119.76 111.65 120.97L111.65 120.97L111.66 120.97z" stroke="none" fill="#F25757" fill-rule="nonzero" />
                        <path d="M120.94 103.21C 120.94 108.72 117.71 113.49 113.060005 115.74C 111.240005 116.61 109.200005 117.11 107.04001 117.11C 101.80001 117.11 97.23001 114.19 94.86001 109.9C 92.490005 114.19 87.920006 117.11 82.68001 117.11C 80.520004 117.11 78.48001 116.61 76.66001 115.74C 72.01001 113.49 68.780014 108.72 68.780014 103.21C 68.780014 102.27 69.55001 101.5 70.49001 101.5C 71.430016 101.5 72.210014 102.27 72.210014 103.21C 72.210014 106.729996 73.95001 109.84 76.62001 111.74C 78.33001 112.96 80.42001 113.68 82.67001 113.68C 88.44001 113.68 93.13001 108.98 93.13001 103.21C 93.13001 102.27 93.90001 101.5 94.85001 101.5C 95.80002 101.5 96.56001 102.27 96.56001 103.21C 96.56001 108.979996 101.26001 113.68 107.030014 113.68C 109.280014 113.68 111.38001 112.97 113.09001 111.74C 115.76001 109.84 117.500015 106.729996 117.500015 103.21C 117.500015 102.27 118.27001 101.5 119.210014 101.5C 120.15002 101.5 120.930016 102.27 120.930016 103.21L120.930016 103.21L120.94 103.21z" stroke="none" fill="#38090E" fill-rule="nonzero" />
                        <path d="M106.78 93.73C 106.78 96.770004 101.44 104.200005 94.86 104.200005C 88.28 104.200005 82.94 96.770004 82.94 93.73C 82.94 90.69 88.28 88.22 94.86 88.22C 101.44 88.22 106.78 90.69 106.78 93.73z" stroke="none" fill="#38090E" fill-rule="nonzero" />
					</g>
					<g>
						<g>
                            <path d="M18.47 205.54L171.88 205.54C 171.88 212.45 166.27 218.04999 159.37001 218.04999L159.37001 218.04999L30.98 218.04999C 24.07 218.04999 18.47 212.43999 18.47 205.54z" stroke="none" fill="#B8C5D3" fill-rule="nonzero" />
                            <path d="M159.37 218.29L30.98 218.29C 23.949999 218.29 18.22 212.56999 18.22 205.53L18.22 205.53L18.22 205.29L172.13 205.29L172.13 205.53C 172.13 212.56 166.41 218.29 159.37001 218.29L159.37001 218.29L159.37 218.29zM18.720001 205.78C 18.85 212.43 24.300001 217.81 30.990002 217.81L30.990002 217.81L159.37 217.81C 166.04999 217.81 171.51 212.44 171.64 205.78L171.64 205.78L18.72 205.78z" stroke="none" fill="#390075" fill-rule="nonzero" />
						</g>
						<g>
							<g>
                                <path d="M171.46 208.77C 171.73001 207.74 171.88 206.66 171.88 205.54001L171.88 205.54001L18.47 205.54001C 18.47 206.66 18.619999 207.74 18.89 208.77L18.89 208.77L171.46 208.77z" stroke="none" fill="#FFFFFF" fill-rule="nonzero" fill-opacity="0.8" />
							</g>
                            <path d="M159.37 219.51L30.98 219.51C 23.279999 219.51 17.009998 213.23999 17.009998 205.54C 17.009998 204.73 17.659998 204.07999 18.469997 204.07999L18.469997 204.07999L171.88 204.07999C 172.69 204.07999 173.34001 204.72998 173.34001 205.54C 173.34001 213.23999 167.07 219.51 159.37001 219.51L159.37001 219.51L159.37 219.51zM20.029999 207C 20.749998 212.41 25.39 216.6 30.989998 216.6L30.989998 216.6L159.37 216.6C 164.97 216.6 169.61 212.41 170.33 207L170.33 207L20.02 207z" stroke="none" fill="url(#1)" />
							<g>
                                <path d="M37.39 218.05L153.32 218.05C 157.23001 218.05 160.52 215.34 160.98001 211.75L160.98001 211.75L170.32 143.54001C 170.86 139.29001 167.28001 135.56001 162.66 135.56001L162.66 135.56001L28.05 135.56001C 23.43 135.56001 19.849998 139.29001 20.39 143.54001L20.39 143.54001L29.73 211.75C 30.189999 215.34 33.48 218.05 37.39 218.05z" stroke="none" fill="#C7D3E3" fill-rule="nonzero" />
                                <path d="M153.32 218.29L37.39 218.29C 33.36 218.29 29.97 215.48999 29.49 211.78L29.49 211.78L20.15 143.57C 19.89 141.56001 20.51 139.59001 21.89 138.03001C 23.41 136.31001 25.65 135.32 28.05 135.32L28.05 135.32L162.65 135.32C 165.04999 135.32 167.29 136.31001 168.81 138.03001C 170.19 139.59001 170.8 141.56001 170.55 143.57L170.55 143.57L161.21 211.78C 160.73001 215.49 157.34001 218.29 153.31001 218.29L153.31001 218.29L153.32 218.29zM28.05 135.8C 25.789999 135.8 23.68 136.73 22.25 138.35C 20.97 139.81001 20.39 141.64 20.63 143.51001L20.63 143.51001L29.97 211.72C 30.41 215.19 33.6 217.81 37.39 217.81L37.39 217.81L153.32 217.81C 157.1 217.81 160.29001 215.19 160.74 211.72L160.74 211.72L170.08 143.51001C 170.32 141.64001 169.74 139.81001 168.46 138.35C 167.03001 136.73001 164.92001 135.8 162.66 135.8L162.66 135.8L28.05 135.8z" stroke="none" fill="#191919" fill-rule="nonzero" />
							</g>
							<g>
                                <path d="M20.39 143.54L28.919998 205.37C 28.919998 205.37 29.739998 211.75 29.739998 211.75C 30.199997 215.34 33.489998 218.05 37.399998 218.05L37.399998 218.05L153.33 218.05C 157.24 218.05 160.52 215.34 160.99 211.75L160.99 211.75L170.33 143.54001C 170.87 139.29001 167.29001 135.56001 162.67 135.56001L162.67 135.56001L28.05 135.56001C 23.43 135.56001 19.849998 139.29001 20.39 143.54001L20.39 143.54001L20.39 143.54z" stroke="none" fill="#FFFFFF" fill-rule="nonzero" fill-opacity="0.8" />
							</g>
                            <path d="M42.23 218.05L148.47 218.05C 152.04001 218.05 155.04001 215.53 155.46 212.17L155.46 212.17L163.99 148.88C 164.49 144.92 161.21 141.44 157 141.44L157 141.44L33.7 141.44C 29.480001 141.44 26.210001 144.92 26.710001 148.88L26.710001 148.88L35.24 212.17001C 35.66 215.52002 38.670002 218.05002 42.230003 218.05002L42.230003 218.05002L42.23 218.05z" stroke="none" fill="#B8C5D3" fill-rule="nonzero" />
                            <path d="M153.32 219.51L37.39 219.51C 32.75 219.51 28.84 216.25 28.289999 211.93999L28.289999 211.93999L18.949999 143.73999C 18.65 141.37 19.369999 139.06 20.98 137.23C 22.73 135.23999 25.31 134.09999 28.05 134.09999L28.05 134.09999L162.65 134.09999C 165.4 134.09999 167.97 135.23999 169.72 137.23C 171.33 139.06 172.05 141.37 171.75 143.73L171.75 143.73L162.41 211.95C 161.86 216.26 157.95 219.51 153.31 219.51L153.31 219.51L153.32 219.51zM28.05 137.02C 26.14 137.02 24.359999 137.8 23.169998 139.16C 22.119999 140.35 21.649998 141.85 21.839998 143.36L21.839998 143.36L31.179998 211.56C 31.55 214.44 34.219997 216.59999 37.39 216.59999L37.39 216.59999L153.32 216.59999C 156.49 216.59999 159.16 214.43999 159.53001 211.56999L159.53001 211.56999L168.87001 143.34999C 169.06001 141.84999 168.59001 140.34999 167.54001 139.15999C 166.34001 137.79999 164.57 137.01999 162.66 137.01999L162.66 137.01999L28.05 137.01999z" stroke="none" fill="url(#231)" />
						</g>
					</g>
                    <path d="M117.18 173.04C 116.53 170.62 107.56 171.56999 99.08 173.73C 98.73 173.81999 98.380005 173.90999 98.04 174C 97.94 174.03 97.840004 174.05 97.74 174.08C 94 175.1 90.509995 176.29001 87.659996 177.52C 87.38 177.64 87.10999 177.76001 86.84 177.88C 86.439995 178.06 86.049995 178.25 85.689995 178.43001C 82.259995 180.13 80.67 181.58 80.979996 182.73001C 81.24999 183.73001 82.939995 184.16 85.439995 184.16C 87.77 184.16 90.78999 183.79001 93.99999 183.18001L93.99999 183.18001L94.34999 182.44C 91.70999 182.96 89.259995 183.31 87.15999 183.44C 83.31999 183.69 81.77999 183.15001 81.61999 182.56C 81.459984 181.97 82.51999 180.73999 85.97999 179.03C 86.50999 178.77 87.069984 178.51 87.65999 178.25C 87.93999 178.13 88.219986 178.01 88.50999 177.89C 91.289986 176.73 94.639984 175.6 98.209984 174.65C 98.499985 174.56999 98.789986 174.5 99.07999 174.42C 99.52998 174.3 99.97999 174.19 100.41998 174.08C 104.33998 173.13 108.02998 172.52 110.98998 172.33C 111.64999 172.29001 112.22998 172.27 112.75998 172.27C 115.31998 172.27 116.39998 172.72 116.529976 173.21C 116.68998 173.8 115.629974 175.03001 112.169975 176.74C 111.63998 177 111.07998 177.26001 110.47997 177.53C 110.20998 177.65 109.92997 177.77 109.63998 177.89C 107.60998 178.74 105.279976 179.56 102.78998 180.31999L102.78998 180.31999L103.07998 180.93C 105.72998 180.12 108.28998 179.2 110.489975 178.25C 110.76997 178.13 111.03998 178.01 111.29997 177.89C 114.809975 176.3 117.20998 174.65 117.20998 173.31999C 117.20998 173.23 117.199974 173.12999 117.169975 173.04L117.169975 173.04L117.18 173.04z" stroke="none" fill="#47128D" fill-rule="nonzero" fill-opacity="0.5882353" />
                    <path d="M111.31 177.89C 111.04 177.77 110.77 177.65 110.5 177.53C 107.57 176.27 103.99 175.05 100.43 174.08C 100.33 174.05 100.23 174.03 100.13 174C 99.78 173.91 99.439995 173.82 99.09 173.73C 90.61 171.56999 81.64 170.61 80.99 173.04C 80.68 174.18999 82.259995 175.64 85.7 177.34C 86.07 177.51999 86.45 177.70999 86.85 177.89C 87.119995 178.01 87.39 178.13 87.67 178.25C 89.83 179.18 92.36 180.1 95.08 180.93L95.08 180.93L95.37 180.31999C 92.880005 179.56 90.55 178.73999 88.520004 177.89C 88.23 177.77 87.950005 177.65 87.670006 177.53C 87.08001 177.27 86.520004 177.01 85.990005 176.75C 82.54001 175.04 81.48 173.81 81.630005 173.22C 81.76 172.73 82.840004 172.28 85.4 172.28C 85.92 172.28 86.51 172.3 87.17 172.34C 90.13 172.53 93.83 173.14 97.74 174.09C 98.189995 174.2 98.63 174.31 99.079994 174.43C 99.369995 174.51 99.659996 174.57999 99.95 174.65999C 103.52 175.62 106.869995 176.73999 109.649994 177.9C 109.939995 178.01999 110.21999 178.14 110.48999 178.26C 111.07999 178.51999 111.649994 178.78 112.17999 179.04999C 115.41999 180.65 116.549995 181.83998 116.549995 182.45999C 116.549995 182.49998 116.549995 182.54 116.53 182.57999C 116.369995 183.16998 114.84 183.69998 110.99 183.45999C 108.9 183.32999 106.45 182.98 103.799995 182.45999L103.799995 182.45999L104.149994 183.2C 107.35999 183.81 110.38 184.18 112.70999 184.18C 113.95999 184.18 114.99999 184.06999 115.76999 183.84C 116.539986 183.61 117.02999 183.25 117.15999 182.75C 117.52999 181.38 115.039986 179.6 111.289986 177.9L111.289986 177.9L111.31 177.89z" stroke="none" fill="url(#460)" />
                    <path d="M93.27 176.06C 93.27 175.5 92.82 175.05 92.259995 175.05C 91.69999 175.05 91.24999 175.5 91.24999 176.06C 91.24999 176.62 91.69999 177.06999 92.259995 177.06999C 92.82 177.06999 93.27 176.62 93.27 176.06z" stroke="none" fill="url(#691)" />
                    <path d="M115.26 179.94C 115.28 182.61 114.64 185.19 113.43 187.51001C 112.69 188.93001 111.72 190.25002 110.56 191.43001C 107.5 194.52 103.439995 196.23001 99.119995 196.23001L99.119995 196.23001L99.079994 196.23001C 97.95999 196.23001 96.84 196.11002 95.74999 195.89001C 93.73999 195.47002 92.05999 194.19002 91.119995 192.36002C 91.10999 192.33002 91.09 192.30002 91.06999 192.27002C 90.13999 190.39001 90.119995 188.22002 91.01999 186.32002L91.01999 186.32002L99.06999 169.38002L106.84999 185.74002C 107.10999 186.29002 107.08999 186.90002 106.80999 187.41002C 106.69999 187.60002 106.55999 187.78001 106.38999 187.93002C 105.74999 188.48003 104.85999 188.54002 104.15999 188.07002C 101.48999 186.28003 99.31999 186.67003 97.969986 187.30002C 97.29999 187.62003 96.50999 187.33002 96.18999 186.66002C 96.18999 186.64001 96.16999 186.62003 96.16999 186.61002C 95.88999 185.95001 96.17999 185.19002 96.829994 184.89001C 98.909996 183.91002 101.17 183.85002 103.38999 184.68001L103.38999 184.68001L99.06999 175.6L93.42999 187.47C 92.87999 188.62 92.88999 189.94 93.45999 191.09C 94.01999 192.22 95.04999 193.01999 96.28999 193.28C 97.20999 193.47 98.159996 193.56999 99.09999 193.56999C 102.69999 193.56999 106.08999 192.14 108.649994 189.56C 111.20999 186.98 112.59999 183.56999 112.579994 179.97C 112.549995 176.4 111.149994 173.04001 108.619995 170.51C 106.09 167.98 102.729996 166.58 99.149994 166.56L99.149994 166.56L99.06999 166.56C 91.74999 166.56 85.69999 172.48 85.55999 179.81C 85.51999 181.97 85.96999 184.03 86.89999 185.95999C 87.219986 186.62 86.94999 187.42 86.27998 187.73999C 85.61998 188.06 84.819984 187.79 84.499985 187.12C 83.37998 184.81 82.83998 182.34 82.889984 179.76C 82.969986 175.68 84.57999 171.95999 87.15998 169.15999C 90.12998 165.93 94.37998 163.9 99.06998 163.9L99.06998 163.9L99.169975 163.9C 102.919975 163.92 106.46998 165.20999 109.32997 167.56999C 109.739975 167.9 110.129974 168.26 110.50997 168.64C 113.53997 171.67 115.21997 175.69 115.24997 179.97L115.24997 179.97L115.26 179.94z" stroke="none" fill="url(#923)" />
                    <path d="M109.34 167.54C 99.78 163.29 91.02 166.98 87.17 169.14C 90.14 165.91 94.39 163.88 99.08 163.88L99.08 163.88L99.18 163.88C 102.93 163.90001 106.48 165.19 109.34 167.55L109.34 167.55L109.34 167.54z" stroke="none" fill="url(#1154)" />
                    <path d="M113.43 187.51C 112.69 188.93 111.72 190.25 110.56 191.43C 107.5 194.51999 103.439995 196.23 99.119995 196.23L99.119995 196.23L99.079994 196.23C 97.95999 196.23 96.84 196.11 95.74999 195.89C 93.73999 195.47 92.05999 194.19 91.119995 192.36C 94.6 193.86 105.24 197.27 113.42999 187.51L113.42999 187.51L113.43 187.51z" stroke="none" fill="#47128D" fill-rule="nonzero" fill-opacity="0.2" />
                    <path d="M106.82 187.41C 106.71 187.6 106.57 187.78 106.4 187.93001C 105.76 188.48001 104.87 188.54001 104.17 188.07C 101.5 186.28001 99.33 186.67001 97.979996 187.3C 97.31 187.62001 96.52 187.33 96.2 186.66C 96.2 186.64 96.18 186.62001 96.18 186.61C 97.92 185.71 102.13 184.2 106.83 187.4L106.83 187.4L106.82 187.41z" stroke="none" fill="#47128D" fill-rule="nonzero" fill-opacity="0.2" />
                    <path d="M100.14 171.61L91.61 185.1L99.08 169.38L100.14 171.61L100.14 171.61" stroke="none" fill="url(#1387)" />
				</g>
			</g>
		</g>
	</g>
</g>
</svg>