<svg width="30" height="31" viewBox="0 0 30 31" fill="none" xmlns="http://www.w3.org/2000/svg">
<path d="M14.375 25.5H6.875C6.54348 25.5 6.22554 25.3683 5.99112 25.1339C5.7567 24.8995 5.625 24.5815 5.625 24.25V6.75C5.625 6.41848 5.7567 6.10054 5.99112 5.86612C6.22554 5.6317 6.54348 5.5 6.875 5.5H13.125V9.25C13.125 10.2446 13.5201 11.1984 14.2233 11.9017C14.9266 12.6049 15.8804 13 16.875 13H20.625V19.25C20.625 19.5815 20.7567 19.8995 20.9911 20.1339C21.2255 20.3683 21.5435 20.5 21.875 20.5C22.2065 20.5 22.5245 20.3683 22.7589 20.1339C22.9933 19.8995 23.125 19.5815 23.125 19.25V11.75C23.125 11.75 23.125 11.75 23.125 11.675C23.112 11.5602 23.0868 11.447 23.05 11.3375V11.225C22.9899 11.0965 22.9097 10.9783 22.8125 10.875L15.3125 3.375C15.2092 3.27777 15.091 3.1976 14.9625 3.1375C14.9211 3.13026 14.8789 3.13026 14.8375 3.1375C14.716 3.0725 14.5853 3.02615 14.45 3H6.875C5.88044 3 4.92661 3.39509 4.22335 4.09835C3.52009 4.80161 3.125 5.75544 3.125 6.75V24.25C3.125 25.2446 3.52009 26.1984 4.22335 26.9017C4.92661 27.6049 5.88044 28 6.875 28H14.375C14.7065 28 15.0245 27.8683 15.2589 27.6339C15.4933 27.3995 15.625 27.0815 15.625 26.75C15.625 26.4185 15.4933 26.1005 15.2589 25.8661C15.0245 25.6317 14.7065 25.5 14.375 25.5ZM15.625 7.2625L18.8625 10.5H16.875C16.5435 10.5 16.2255 10.3683 15.9911 10.1339C15.7567 9.89946 15.625 9.58152 15.625 9.25V7.2625ZM9.375 18H16.875C17.2065 18 17.5245 17.8683 17.7589 17.6339C17.9933 17.3995 18.125 17.0815 18.125 16.75C18.125 16.4185 17.9933 16.1005 17.7589 15.8661C17.5245 15.6317 17.2065 15.5 16.875 15.5H9.375C9.04348 15.5 8.72554 15.6317 8.49112 15.8661C8.2567 16.1005 8.125 16.4185 8.125 16.75C8.125 17.0815 8.2567 17.3995 8.49112 17.6339C8.72554 17.8683 9.04348 18 9.375 18ZM14.375 20.5H9.375C9.04348 20.5 8.72554 20.6317 8.49112 20.8661C8.2567 21.1005 8.125 21.4185 8.125 21.75C8.125 22.0815 8.2567 22.3995 8.49112 22.6339C8.72554 22.8683 9.04348 23 9.375 23H14.375C14.7065 23 15.0245 22.8683 15.2589 22.6339C15.4933 22.3995 15.625 22.0815 15.625 21.75C15.625 21.4185 15.4933 21.1005 15.2589 20.8661C15.0245 20.6317 14.7065 20.5 14.375 20.5ZM9.375 13H10.625C10.9565 13 11.2745 12.8683 11.5089 12.6339C11.7433 12.3995 11.875 12.0815 11.875 11.75C11.875 11.4185 11.7433 11.1005 11.5089 10.8661C11.2745 10.6317 10.9565 10.5 10.625 10.5H9.375C9.04348 10.5 8.72554 10.6317 8.49112 10.8661C8.2567 11.1005 8.125 11.4185 8.125 11.75C8.125 12.0815 8.2567 12.3995 8.49112 12.6339C8.72554 12.8683 9.04348 13 9.375 13ZM26.5125 20.8625C26.3963 20.7453 26.258 20.6523 26.1057 20.5889C25.9534 20.5254 25.79 20.4928 25.625 20.4928C25.46 20.4928 25.2966 20.5254 25.1443 20.5889C24.992 20.6523 24.8537 20.7453 24.7375 20.8625L20.625 24.9875L19.0125 23.3625C18.896 23.246 18.7576 23.1535 18.6053 23.0904C18.453 23.0273 18.2898 22.9949 18.125 22.9949C17.9602 22.9949 17.797 23.0273 17.6447 23.0904C17.4924 23.1535 17.354 23.246 17.2375 23.3625C17.121 23.479 17.0285 23.6174 16.9654 23.7697C16.9023 23.922 16.8699 24.0852 16.8699 24.25C16.8699 24.4148 16.9023 24.578 16.9654 24.7303C17.0285 24.8826 17.121 25.021 17.2375 25.1375L19.7375 27.6375C19.8537 27.7547 19.992 27.8477 20.1443 27.9111C20.2966 27.9746 20.46 28.0072 20.625 28.0072C20.79 28.0072 20.9534 27.9746 21.1057 27.9111C21.258 27.8477 21.3963 27.7547 21.5125 27.6375L26.5125 22.6375C26.6297 22.5213 26.7227 22.383 26.7861 22.2307C26.8496 22.0784 26.8822 21.915 26.8822 21.75C26.8822 21.585 26.8496 21.4216 26.7861 21.2693C26.7227 21.117 26.6297 20.9787 26.5125 20.8625Z" fill="black"/>
</svg>
