<svg width="30" height="31" viewBox="0 0 30 31" fill="none" xmlns="http://www.w3.org/2000/svg">
<path d="M25.1994 6.26251C23.8723 4.93502 22.1128 4.12792 20.2409 3.98799C18.369 3.84806 16.5091 4.38459 14.9994 5.50001C13.4089 4.31706 11.4294 3.78065 9.45927 3.99881C7.48918 4.21697 5.67492 5.17348 4.38183 6.67574C3.08875 8.178 2.4129 10.1144 2.49037 12.095C2.56784 14.0756 3.39289 15.9533 4.79937 17.35L14.1119 26.6625C14.2281 26.7797 14.3663 26.8727 14.5186 26.9361C14.671 26.9996 14.8344 27.0323 14.9994 27.0323C15.1644 27.0323 15.3278 26.9996 15.4801 26.9361C15.6324 26.8727 15.7707 26.7797 15.8869 26.6625L25.1994 17.35C25.9277 16.6222 26.5054 15.7579 26.8996 14.8067C27.2938 13.8555 27.4967 12.8359 27.4967 11.8063C27.4967 10.7766 27.2938 9.75702 26.8996 8.8058C26.5054 7.85458 25.9277 6.99036 25.1994 6.26251ZM23.4369 15.5875L14.9994 24.0125L6.56187 15.5875C5.81834 14.8409 5.31184 13.8913 5.1059 12.8579C4.89997 11.8246 5.00378 10.7534 5.40431 9.77875C5.80483 8.80414 6.48424 7.9695 7.3573 7.37954C8.23036 6.78958 9.2582 6.47056 10.3119 6.46251C11.7195 6.46596 13.0682 7.02793 14.0619 8.02501C14.1781 8.14217 14.3163 8.23517 14.4686 8.29863C14.621 8.36209 14.7844 8.39476 14.9494 8.39476C15.1144 8.39476 15.2778 8.36209 15.4301 8.29863C15.5824 8.23517 15.7207 8.14217 15.8369 8.02501C16.8598 7.13861 18.1812 6.67394 19.5338 6.72504C20.8864 6.77614 22.169 7.3392 23.1221 8.30025C24.0752 9.2613 24.6276 10.5486 24.6675 11.9015C24.7073 13.2544 24.2317 14.572 23.3369 15.5875H23.4369Z" fill="black"/>
</svg>
