<svg width="51" height="50" viewBox="0 0 51 50" fill="none" xmlns="http://www.w3.org/2000/svg">
<path d="M5.32377 3.50852V2.72727H10.7783V3.50852H8.49139V10H7.61071V3.50852H5.32377ZM12.8868 10.1278C12.5412 10.1278 12.2275 10.0627 11.9458 9.93253C11.664 9.79995 11.4403 9.60938 11.2746 9.3608C11.1089 9.10985 11.026 8.80682 11.026 8.4517C11.026 8.1392 11.0876 7.88589 11.2107 7.69176C11.3338 7.49527 11.4983 7.34138 11.7043 7.23011C11.9102 7.11884 12.1375 7.03598 12.3861 6.98153C12.637 6.92472 12.8892 6.87973 13.1425 6.84659C13.4739 6.80398 13.7426 6.77202 13.9486 6.75071C14.1569 6.72704 14.3084 6.68797 14.4031 6.63352C14.5002 6.57907 14.5487 6.48437 14.5487 6.34943V6.32102C14.5487 5.97064 14.4529 5.69839 14.2611 5.50426C14.0717 5.31013 13.7841 5.21307 13.3982 5.21307C12.9981 5.21307 12.6844 5.30066 12.4571 5.47585C12.2298 5.65104 12.07 5.83807 11.9777 6.03693L11.1823 5.75284C11.3243 5.4214 11.5137 5.16335 11.7504 4.97869C11.9896 4.79167 12.25 4.66146 12.5317 4.58807C12.8158 4.51231 13.0951 4.47443 13.3698 4.47443C13.545 4.47443 13.7462 4.49574 13.9735 4.53835C14.2031 4.5786 14.4244 4.66264 14.6375 4.79048C14.853 4.91832 15.0317 5.11127 15.1737 5.36932C15.3158 5.62737 15.3868 5.97301 15.3868 6.40625V10H14.5487V9.26136H14.5061C14.4493 9.37973 14.3546 9.50639 14.222 9.64134C14.0895 9.77628 13.9131 9.8911 13.6929 9.9858C13.4727 10.0805 13.204 10.1278 12.8868 10.1278ZM13.0146 9.375C13.3461 9.375 13.6254 9.3099 13.8527 9.17969C14.0824 9.04948 14.2552 8.88139 14.3712 8.67543C14.4896 8.46946 14.5487 8.25284 14.5487 8.02557V7.25852C14.5132 7.30114 14.4351 7.3402 14.3144 7.37571C14.196 7.40885 14.0587 7.43845 13.9024 7.46449C13.7485 7.48816 13.5982 7.50947 13.4514 7.52841C13.307 7.54498 13.1898 7.55919 13.0999 7.57102C12.8821 7.59943 12.6785 7.6456 12.4891 7.70952C12.3021 7.77107 12.1505 7.86458 12.0345 7.99006C11.9209 8.11316 11.8641 8.28125 11.8641 8.49432C11.8641 8.78551 11.9718 9.00568 12.1872 9.15483C12.405 9.30161 12.6808 9.375 13.0146 9.375ZM16.9165 12.0455V4.54545H17.7261V5.41193H17.8256C17.8871 5.31723 17.9723 5.1965 18.0812 5.04972C18.1925 4.90057 18.3511 4.76799 18.5571 4.65199C18.7654 4.53362 19.0471 4.47443 19.4023 4.47443C19.8615 4.47443 20.2664 4.58925 20.6167 4.81889C20.9671 5.04853 21.2406 5.37405 21.4371 5.79545C21.6336 6.21686 21.7318 6.71402 21.7318 7.28693C21.7318 7.86458 21.6336 8.36529 21.4371 8.78906C21.2406 9.21046 20.9683 9.53717 20.6203 9.76918C20.2723 9.99882 19.871 10.1136 19.4165 10.1136C19.0661 10.1136 18.7855 10.0556 18.5748 9.93963C18.3641 9.82126 18.202 9.6875 18.0883 9.53835C17.9747 9.38684 17.8871 9.26136 17.8256 9.16193H17.7545V12.0455H16.9165ZM17.7403 7.27273C17.7403 7.68466 17.8007 8.04806 17.9214 8.36293C18.0422 8.67543 18.2185 8.92045 18.4506 9.09801C18.6826 9.2732 18.9666 9.3608 19.3028 9.3608C19.6532 9.3608 19.9456 9.26847 20.18 9.08381C20.4167 8.89678 20.5943 8.64583 20.7126 8.33097C20.8334 8.01373 20.8937 7.66098 20.8937 7.27273C20.8937 6.8892 20.8345 6.54356 20.7162 6.2358C20.6002 5.92566 20.4238 5.68063 20.1871 5.50071C19.9527 5.31842 19.6579 5.22727 19.3028 5.22727C18.9619 5.22727 18.6755 5.31368 18.4434 5.48651C18.2114 5.65696 18.0363 5.89607 17.9179 6.20384C17.7995 6.50923 17.7403 6.86553 17.7403 7.27273ZM26.6608 6.71875V10H25.8227V2.72727H26.6608V5.39773H26.7318C26.8596 5.116 27.0514 4.89228 27.3071 4.72656C27.5651 4.55848 27.9084 4.47443 28.3369 4.47443C28.7086 4.47443 29.0341 4.54901 29.3135 4.69815C29.5928 4.84493 29.8095 5.07102 29.9633 5.37642C30.1196 5.67945 30.1977 6.06534 30.1977 6.53409V10H29.3596V6.59091C29.3596 6.15767 29.2472 5.82268 29.0223 5.58594C28.7997 5.34683 28.4908 5.22727 28.0954 5.22727C27.8208 5.22727 27.5746 5.28527 27.3568 5.40128C27.1414 5.51728 26.9709 5.68655 26.8454 5.90909C26.7223 6.13163 26.6608 6.40152 26.6608 6.71875ZM34.0178 10.1136C33.4923 10.1136 33.0389 9.99763 32.6578 9.76562C32.279 9.53125 31.9866 9.20455 31.7806 8.78551C31.577 8.36411 31.4752 7.87405 31.4752 7.31534C31.4752 6.75663 31.577 6.2642 31.7806 5.83807C31.9866 5.40956 32.2731 5.07576 32.64 4.83665C33.0093 4.59517 33.4402 4.47443 33.9326 4.47443C34.2167 4.47443 34.4972 4.52178 34.7742 4.61648C35.0512 4.71117 35.3034 4.86506 35.5306 5.07812C35.7579 5.28883 35.939 5.56818 36.074 5.91619C36.2089 6.2642 36.2764 6.69271 36.2764 7.2017V7.55682H32.0718V6.83239H35.4241C35.4241 6.52462 35.3625 6.25 35.2394 6.00852C35.1187 5.76705 34.9459 5.57647 34.721 5.43679C34.4984 5.29711 34.2356 5.22727 33.9326 5.22727C33.5988 5.22727 33.31 5.31013 33.0661 5.47585C32.8247 5.6392 32.6388 5.85227 32.5086 6.11506C32.3784 6.37784 32.3133 6.65956 32.3133 6.96023V7.44318C32.3133 7.85511 32.3843 8.20431 32.5264 8.49077C32.6708 8.77486 32.8708 8.99148 33.1265 9.14062C33.3822 9.28741 33.6793 9.3608 34.0178 9.3608C34.238 9.3608 34.4369 9.33002 34.6144 9.26847C34.7944 9.20455 34.9494 9.10985 35.0796 8.98438C35.2098 8.85653 35.3105 8.69792 35.3815 8.50852L36.1911 8.7358C36.1059 9.01042 35.9627 9.25189 35.7615 9.46023C35.5602 9.66619 35.3116 9.82718 35.0157 9.94318C34.7198 10.0568 34.3872 10.1136 34.0178 10.1136ZM37.5512 10V4.54545H38.3609V5.36932H38.4177C38.5171 5.09943 38.6971 4.88045 38.9575 4.71236C39.2179 4.54427 39.5115 4.46023 39.8382 4.46023C39.8997 4.46023 39.9767 4.46141 40.069 4.46378C40.1613 4.46615 40.2311 4.4697 40.2785 4.47443V5.3267C40.2501 5.3196 40.185 5.30895 40.0832 5.29474C39.9838 5.27817 39.8784 5.26989 39.7671 5.26989C39.502 5.26989 39.2652 5.32552 39.0569 5.43679C38.8509 5.54569 38.6876 5.69721 38.5669 5.89134C38.4485 6.0831 38.3893 6.30208 38.3893 6.5483V10H37.5512ZM43.3928 10.1136C42.8673 10.1136 42.4139 9.99763 42.0328 9.76562C41.654 9.53125 41.3616 9.20455 41.1556 8.78551C40.952 8.36411 40.8502 7.87405 40.8502 7.31534C40.8502 6.75663 40.952 6.2642 41.1556 5.83807C41.3616 5.40956 41.6481 5.07576 42.015 4.83665C42.3843 4.59517 42.8152 4.47443 43.3076 4.47443C43.5917 4.47443 43.8722 4.52178 44.1492 4.61648C44.4262 4.71117 44.6784 4.86506 44.9056 5.07812C45.1329 5.28883 45.314 5.56818 45.449 5.91619C45.5839 6.2642 45.6514 6.69271 45.6514 7.2017V7.55682H41.4468V6.83239H44.7991C44.7991 6.52462 44.7375 6.25 44.6144 6.00852C44.4937 5.76705 44.3209 5.57647 44.096 5.43679C43.8734 5.29711 43.6106 5.22727 43.3076 5.22727C42.9738 5.22727 42.685 5.31013 42.4411 5.47585C42.1997 5.6392 42.0138 5.85227 41.8836 6.11506C41.7534 6.37784 41.6883 6.65956 41.6883 6.96023V7.44318C41.6883 7.85511 41.7593 8.20431 41.9014 8.49077C42.0458 8.77486 42.2458 8.99148 42.5015 9.14062C42.7572 9.28741 43.0543 9.3608 43.3928 9.3608C43.613 9.3608 43.8119 9.33002 43.9894 9.26847C44.1694 9.20455 44.3244 9.10985 44.4546 8.98438C44.5848 8.85653 44.6855 8.69792 44.7565 8.50852L45.5661 8.7358C45.4809 9.01042 45.3377 9.25189 45.1365 9.46023C44.9352 9.66619 44.6866 9.82718 44.3907 9.94318C44.0948 10.0568 43.7622 10.1136 43.3928 10.1136Z" fill="#484848"/>
<path d="M17.9844 35.6778C18.1432 38.1098 17.3611 40.1332 16.1474 42.0263C15.6233 42.8372 14.9663 43.5335 14.1995 44.0857C12.4152 45.3844 10.3702 46.0656 8.15897 46.1944C6.83622 46.269 5.65181 45.8979 4.83185 44.7333C4.71946 44.5679 4.60109 44.3978 4.52993 44.2172C4.34241 43.7532 4.55056 43.3052 5.04934 43.1537C5.27811 43.0857 5.54014 43.1108 5.8015 43.0876C6.21447 43.4139 6.02226 44.0756 6.60084 44.303C7.14017 44.5185 7.67552 44.6161 8.23349 44.5497C10.2798 44.3098 12.2004 43.7122 13.7227 42.3022C15.245 40.8922 16.0298 39.0622 16.3237 37.0167C16.339 36.9236 16.2938 36.8208 16.2652 36.7217C16.2493 36.6804 16.218 36.6461 16.1588 36.5611C15.7385 36.6501 15.2969 36.7414 14.854 36.8222C13.7567 37.0175 12.6468 37.0689 11.5408 36.8077C9.46795 36.3184 8.34009 34.8913 8.34412 32.7699C8.34614 31.7953 8.54302 30.8694 8.94538 29.991C9.47277 28.819 10.4052 28.0818 11.6335 27.7699C12.9609 27.4309 14.132 27.782 15.063 28.8429C15.875 29.7716 16.4662 30.832 16.9058 31.9736C17.1059 32.4954 17.3047 33.0066 17.5382 33.6217C18.948 32.9938 19.8379 31.8306 20.8281 30.8234C22.0299 29.6099 23.1405 27.2813 23.511 25.459C22.9816 25.4523 22.5959 25.8174 22.1437 25.91C21.7067 25.9954 21.2578 26.0714 20.8149 26.066C20.4797 26.0596 20.2982 25.7726 20.257 25.4434C20.2111 25.12 20.2996 24.8358 20.6221 24.6982C20.9905 24.5395 21.3822 24.4375 21.742 24.2528C23.0462 23.5988 24.3177 22.8999 25.3439 21.8348C25.449 21.7264 25.554 21.618 25.6724 21.5297C25.9783 21.3025 26.3208 21.2381 26.6666 21.4156C27.0184 21.5979 27.1368 21.9402 27.0982 22.3213C27.0304 23.0716 26.908 23.8171 26.8674 24.5698C26.8075 25.7283 26.8341 26.8882 27.2544 28.005C27.3096 28.1443 27.3448 28.2966 27.3634 28.4453C27.4486 28.9528 27.2889 29.3147 26.9225 29.4463C26.5514 29.5838 26.1318 29.4628 25.8565 29.073C25.6536 28.7884 25.52 28.4531 25.377 28.1296C25.2586 27.8733 25.1602 27.6042 24.9714 27.1296C24.1074 28.9736 23.4171 30.6964 22.1309 32.0536C20.874 33.3861 19.5359 34.5876 17.9844 35.6778ZM16.0545 34.6507C15.72 33.2284 15.3064 31.9924 14.5782 30.8716C14.3314 30.4948 14.0575 30.1157 13.7323 29.8013C13.0014 29.0899 12.2865 29.0227 11.3787 29.4827C10.7649 29.792 10.33 30.281 10.1457 30.9202C9.98545 31.4922 9.85642 32.0985 9.84909 32.6861C9.83111 34.1361 10.5221 34.9596 11.9452 35.2131C13.3198 35.4665 14.6506 35.2833 16.0545 34.6507Z" fill="#484848"/>
</svg>
